<svg width="48" height="48" viewBox="0 0 48 48" fill="none" xmlns="http://www.w3.org/2000/svg">
<path fill-rule="evenodd" clip-rule="evenodd" d="M10.0391 41V23.5V6H19.4757H28.9121L33.5299 10.6849L38.1476 15.3699V28.1849V30H36.1364H35.9414V27.8957V17.0308L31.6544 16.9865L27.3672 16.9424L27.3237 12.5908L27.2801 8.23934L19.7218 8.19621L12.1635 8.15308V23.4995V38.8458L24.0525 38.8033L27.1016 38.7924V39V41H24.0933H10.0391ZM31.8559 14.7915C33.1591 14.7915 34.2255 14.7346 34.2255 14.6649C34.2255 14.5952 33.1591 13.458 31.8559 12.1374L29.4862 9.73654V12.264V14.7915H31.8559ZM16.5759 23.4171V22.3389V21.2607H24.0933H31.6107V22.3389V23.4171H24.0933H16.5759ZM16.5759 27.8957V26.8175V25.7393H24.0933H31.6107V26.8175V27.8957H24.0933H16.5759ZM16.5759 32.2085V31.1303V30.0521H24.0933H31.6107V31.1303V32.2085H24.0933H16.5759Z" fill="#243A4A"/>
<path d="M34.856 37.3221H35.356V36.8221V34.5797V34.5722V34.5647V34.5572V34.5496V34.5421V34.5346V34.5271V34.5196V34.512V34.5045V34.497V34.4895V34.482V34.4744V34.4669V34.4594V34.4519V34.4444V34.4369V34.4294V34.4218V34.4143V34.4068V34.3993V34.3918V34.3843V34.3768V34.3693V34.3618V34.3543V34.3468V34.3393V34.3318V34.3243V34.3168V34.3093V34.3018V34.2943V34.2869V34.2794V34.2719V34.2644V34.2569V34.2495V34.242V34.2345V34.2271V34.2196V34.2121V34.2047V34.1972V34.1898V34.1823V34.1749V34.1674V34.16V34.1525V34.1451V34.1377V34.1302V34.1228V34.1154V34.108V34.1006V34.0931V34.0857V34.0783V34.0709V34.0635V34.0561V34.0487V34.0414V34.034V34.0266V34.0192V34.0119V34.0045V33.9971V33.9898V33.9824V33.9751V33.9677V33.9604V33.9531V33.9457V33.9384V33.9311V33.9238V33.9165V33.9091V33.9018V33.8946V33.8873V33.88V33.8727V33.8654V33.8582V33.8509V33.8436V33.8364V33.8291V33.8219V33.8147V33.8074V33.8002V33.793V33.7858V33.7786V33.7714V33.7642V33.757V33.7498V33.7426V33.7355V33.7283V33.7211V33.714V33.7068V33.6997V33.6926V33.6855V33.6783V33.6712V33.6641V33.657V33.65V33.6429V33.6358V33.6287V33.6217V33.6146V33.6076V33.6005V33.5935V33.5865V33.5795V33.5725V33.5655V33.5585V33.5515V33.5445V33.5376V33.5306V33.5236V33.5167V33.5098V33.5028V33.4959V33.489V33.4821V33.4752V33.4683V33.4615V33.4546V33.4477V33.4409V33.4341V33.4272V33.4204V33.4136V33.4068V33.4V33.3932V33.3864V33.3797V33.3729V33.3662V33.3594V33.3527V33.346V33.3393V33.3326V33.3259V33.3192V33.3125V33.3059V33.2992V33.2926V33.2859V33.2793V33.2727V33.2661V33.2595V33.2529V33.2464V33.2398V33.2333V33.2267V33.2202V33.2137V33.2072V33.2007V33.1942V33.1878V33.1813V33.1748V33.1684V33.162V33.1556V33.1492V33.1428V33.1364V33.13V33.1237V33.1173V33.111V33.1047V33.0984V33.0921V33.0858V33.0795V33.0732V33.067V33.0607V33.0545V33.0483V33.0421V33.0359V33.0297V33.0236V33.0174V33.0113V33.0052V32.999V32.9929V32.9869V32.9808V32.9747V32.9687V32.9626V32.9566V32.9506V32.9446V32.9386V32.9327V32.9267V32.9208V32.9148V32.9089V32.903V32.8971V32.8913V32.8854V32.8796V32.8737V32.8679V32.8621V32.8563V32.8505V32.8448V32.839V32.8333V32.8276V32.8219V32.8162V32.8105V32.8049V32.7992V32.7936V32.788V32.7824V32.7768V32.7712V32.7657V32.7601V32.7546V32.7491V32.7436V32.7381V32.7327V32.7272V32.7218V32.7164V32.711V32.7056V32.7002V32.6949V32.6895V32.6842V32.6789V32.6736V32.6683V32.6631V32.6578V32.6526V32.6474V32.6422V32.637V32.6319V32.6267V32.6216V32.6165V32.6114V32.6063V32.6013V32.5962V32.5912V32.5862V32.5812V32.5762V32.5713V32.5664V32.5614V32.5565V32.5516V32.5468V32.5419V32.5371V32.5323V32.5275V32.5227V32.5179V32.5132V32.5085V32.5039H35.3601H35.3652H35.3703H35.3754H35.3806H35.3858H35.3909H35.3961H35.4013H35.4066H35.4118H35.4171H35.4223H35.4276H35.4329H35.4383H35.4436H35.4489H35.4543H35.4597H35.4651H35.4705H35.4759H35.4814H35.4868H35.4923H35.4978H35.5033H35.5088H35.5143H35.5199H35.5254H35.531H35.5365H35.5421H35.5477H35.5534H35.559H35.5646H35.5703H35.576H35.5816H35.5873H35.593H35.5987H35.6045H35.6102H35.616H35.6217H35.6275H35.6333H35.6391H35.6449H35.6507H35.6565H35.6623H35.6682H35.674H35.6799H35.6858H35.6917H35.6976H35.7035H35.7094H35.7153H35.7212H35.7272H35.7331H35.7391H35.745H35.751H35.757H35.763H35.769H35.775H35.781H35.787H35.793H35.7991H35.8051H35.8112H35.8172H35.8233H35.8294H35.8354H35.8415H35.8476H35.8537H35.8598H35.8659H35.872H35.8781H35.8842H35.8904H35.8965H35.9026H35.9088H35.9149H35.9211H35.9272H35.9334H35.9395H35.9457H35.9519H35.9581H35.9642H35.9704H35.9766H35.9828H35.989H35.9952H36.0014H36.0076H36.0138H36.02H36.0262H36.0324H36.0386H36.0448H36.051H36.0572H36.0635H36.0697H36.0759H36.0821H36.0883H36.0946H36.1008H36.107H36.1132H36.1195H36.1257H36.1319H36.1381H36.1444H36.1506H36.1568H36.163H36.1693H36.1755H36.1817H36.1879H36.1941H36.2004H36.2066H36.2128H36.219H36.2252H36.2314H36.2376H36.2438H36.25H36.2562H36.2624H36.2686H36.2748H36.281H36.2872H36.2933H36.2995H36.3057H36.3119H36.318H36.3242H36.3303H36.3365H36.3426H36.3488H36.3549H36.361H36.3672H36.3733H36.3794H36.3855H36.3916H36.3977H36.4038H36.4099H36.416H36.4221H36.4281H36.4342H36.4403H36.4463H36.4524H36.4584H36.4644H36.4704H36.4765H36.4825H36.4885H36.4944H36.5004H36.5064H36.5124H36.5183H36.5243H36.5302H36.5362H36.5421H36.548H36.5539H36.5598H36.5657H36.5716H36.5774H36.5833H36.5891H36.595H36.6008H36.6066H36.6124H36.6182H36.624H36.6298H36.6355H36.6413H36.647H36.6528H36.6585H36.6642H36.6699H36.6756H36.6812H36.6869H36.6925H36.6982H36.7038H36.7094H36.7149V36.8221V37.3221H37.2149H41.6637V38.7872H37.2255H36.7255V39.2872V41.6455V43.5039H36.0407H35.356V41.6403V39.2766V38.7766H34.856H32.4866H30.6172V38.0948V37.3221H34.856Z" fill="#243A4A" stroke="#243A4A"/>
</svg>
