<svg width="48" height="48" viewBox="0 0 48 48" fill="none" xmlns="http://www.w3.org/2000/svg">
<path fill-rule="evenodd" clip-rule="evenodd" d="M21.2092 6.95593C20.6786 7.04027 19.5047 7.34706 18.6005 7.63749C13.079 9.4114 8.90854 13.8398 7.28593 19.6524C6.92298 20.9526 6.87445 21.4867 6.88385 24.0872C6.89358 26.7895 6.93532 27.1784 7.36837 28.609C8.27219 31.5945 9.62228 33.9244 11.652 36.0015C13.8437 38.2441 16.4758 39.7867 19.5668 40.6398C21.1228 41.0691 21.5856 41.1187 23.9998 41.1149C27.1551 41.1098 28.595 40.7997 31.2785 39.5472C35.9658 37.3596 39.2946 33.3444 40.7077 28.1742C41.0496 26.9236 41.1117 26.2808 41.1117 24.0003C41.1117 21.7004 41.0515 21.0876 40.7011 19.8264C38.943 13.498 34.4508 8.97714 28.2567 7.30288C26.6906 6.87958 22.8706 6.69158 21.2092 6.95593ZM27.9687 9.5528C32.8538 10.9671 36.6675 14.6561 38.2306 19.4785C40.7042 27.1102 36.5425 35.3924 28.8694 38.1077C23.3964 40.0444 17.2162 38.5262 13.1155 34.2375C11.5075 32.5557 10.3193 30.4825 9.53845 27.9956C9.17967 26.8531 9.13115 26.3594 9.13706 23.9133C9.1435 21.2347 9.16506 21.069 9.7108 19.4785C10.5007 17.1768 11.5099 15.4872 13.1038 13.7984C15.3875 11.3785 18.2816 9.76914 21.3499 9.21262C22.8054 8.94862 26.5463 9.14097 27.9687 9.5528ZM22.8985 13.6815C22.8346 13.7451 22.7825 15.8178 22.7825 18.2872V22.7771L18.2172 22.8234L13.652 22.8698L13.6004 23.9538L13.5485 25.038L18.1221 25.0843L22.6955 25.1307L22.7419 29.6959L22.7882 34.2611H23.9129H25.0376L25.0838 29.6959L25.1303 25.1307L29.6955 25.0843L34.2607 25.038V23.9133V22.7886L29.6955 22.7424L25.1303 22.6959L25.0838 18.1307L25.0376 13.5655H24.0259C23.4696 13.5655 22.9621 13.6177 22.8985 13.6815Z" fill="#333333"/>
</svg>
