<svg width="49" height="48" viewBox="0 0 49 48" fill="none" xmlns="http://www.w3.org/2000/svg">
<path fill-rule="evenodd" clip-rule="evenodd" d="M18.0358 5.26684C16.4024 5.69713 15.1618 6.39884 13.8279 7.64718C11.0601 10.2375 10.0988 14.2372 11.4115 17.7002C12.001 19.2551 12.6522 20.213 13.9804 21.4779L15.1334 22.576L13.9098 23.1889C9.62041 25.3376 6.51396 29.8629 6.12127 34.535L6 35.9778L7.16154 35.9236L8.32307 35.8692L8.44943 34.7333C8.77313 31.8214 9.85079 29.6452 12.0341 27.4941C14.3882 25.1748 16.4936 24.2573 19.7881 24.1154C23.0583 23.9744 25.4355 24.7033 27.9181 26.6087C29.6225 27.9168 31.6046 30.8741 31.93 32.5943C32.1928 33.9844 32.378 33.158 32.378 30.5951V27.9327L31.3808 26.7409C30.2628 25.4046 28.4936 24.0345 26.7955 23.1902C26.1715 22.8799 25.6608 22.5636 25.6608 22.4872C25.6608 22.411 25.9075 22.2039 26.2092 22.0272C26.8614 21.645 28.4308 19.8169 28.9148 18.8756C29.8396 17.0771 30.1808 13.9293 29.6592 12.0046C28.7827 8.76909 25.6958 5.85508 22.4294 5.17931C21.1288 4.91022 19.2478 4.94769 18.0358 5.26684ZM22.3968 7.60972C24.3099 8.17329 25.9375 9.51565 26.8323 11.2676C28.9613 15.4357 26.5289 20.453 21.8821 21.4788C20.7249 21.7342 20.3317 21.7479 19.3428 21.5672C13.6079 20.5188 11.2612 14.0516 15.0394 9.70693C16.7556 7.73346 19.8362 6.85524 22.3968 7.60972ZM34.8592 31.2164C34.7926 31.2824 34.7381 32.3765 34.7381 33.6479V35.9593H32.378H30.0179V37.13V38.3007H32.378H34.7381V40.6505V43L35.9636 42.9469L37.189 42.8936L37.2181 40.6422L37.2471 38.3908L39.6236 38.3405L42 38.2903V37.1248V35.9593H39.6399H37.2798V33.8127C37.2798 32.6321 37.2302 31.5379 37.1696 31.3812C37.0868 31.1673 36.8003 31.0963 36.0198 31.0963C35.448 31.0963 34.9257 31.1503 34.8592 31.2164Z" fill="#333333"/>
</svg>
