<svg width="48" height="48" viewBox="0 0 48 48" fill="none" xmlns="http://www.w3.org/2000/svg">
<path fill-rule="evenodd" clip-rule="evenodd" d="M6.18178 9.10429C6.0131 9.21501 5.97742 11.8728 6.01191 21.808L6.05556 34.3718L17.2248 34.4167L28.3941 34.4615V33.629V32.7963L25.3363 29.6562C23.6546 27.9291 22.2786 26.435 22.2786 26.3356C22.2786 26.1056 24.8625 23.4561 25.0871 23.4561C25.1794 23.4561 26.6292 24.8708 28.3091 26.5998L31.3633 29.7435H32.1721H32.9807V28.9999C32.9807 28.2629 32.946 28.2206 29.1147 24.2843C26.9884 22.0998 25.1739 20.3124 25.0825 20.3124C24.9911 20.3124 23.9403 21.3137 22.7474 22.5373L20.5787 24.7622L16.0787 20.1383L11.5787 15.5143L10.0031 17.1274C9.13641 18.0148 8.36994 18.7406 8.29978 18.7406C8.22962 18.7406 8.19276 17.1097 8.21807 15.1166L8.26393 11.4926L21.7265 11.4479L35.1891 11.4032V18.3029V25.2026H36.2949H37.4008L37.3567 17.1251L37.3125 9.04753L21.8539 9.00596C13.3517 8.98325 6.29916 9.02744 6.18178 9.10429ZM31.1121 14.0251C30.9252 14.2172 30.7723 14.5708 30.7723 14.811C30.7723 15.3389 31.3217 15.9462 31.7992 15.9462C32.2112 15.9462 32.9807 15.2067 32.9807 14.811C32.9807 14.4152 32.2112 13.6758 31.7992 13.6758C31.6081 13.6758 31.2989 13.8329 31.1121 14.0251ZM24.487 32.0585C24.487 32.1319 20.8367 32.1717 16.3754 32.1467L8.26393 32.1013L8.21875 27.2169L8.17356 22.3326L9.91545 20.5355L11.6575 18.7383L18.0723 25.3317C21.6003 28.958 24.487 31.985 24.487 32.0585ZM35.3024 27.5896C35.24 27.6535 35.1891 28.7145 35.1891 29.9474V32.1887H32.9807H30.7723V33.3239V34.4591H32.9807H35.1891V36.7295V39H36.2932H37.3974V36.7346V34.4692L39.6483 34.4205L41.8991 34.3718L41.9496 33.2853L42 32.199L39.7412 32.1501L37.4824 32.1013L37.435 29.7872L37.3876 27.4731H36.4016C35.8592 27.4731 35.3645 27.5255 35.3024 27.5896Z" fill="#333333"/>
</svg>
