<svg width="49" height="48" viewBox="0 0 49 48" fill="none" xmlns="http://www.w3.org/2000/svg">
<path fill-rule="evenodd" clip-rule="evenodd" d="M24.6778 9.60945C24.326 9.94463 24.0381 10.2953 24.0381 10.3885C24.0381 10.4817 26.7559 13.3343 30.0777 16.7277C34.2941 21.0348 36.0489 22.9242 35.8905 22.9863C35.7657 23.0352 29.4392 23.0752 21.8318 23.0752H8V24.0029V24.9305H21.9702C29.6539 24.9305 35.9763 24.967 36.02 25.0116C36.0636 25.0563 33.3855 27.8656 30.0687 31.2547C26.7518 34.6437 24.0381 37.4945 24.0381 37.5899C24.0381 37.6851 24.3272 38.0415 24.6806 38.3816L25.3231 39L32.6615 31.5014L40 24.0029L32.6588 16.5014L25.3175 9L24.6778 9.60945Z" fill="#333333"/>
</svg>
