<svg width="48" height="48" viewBox="0 0 48 48" fill="none" xmlns="http://www.w3.org/2000/svg">
<path fill-rule="evenodd" clip-rule="evenodd" d="M21.627 7.09532C16.5778 7.934 12.3962 10.6457 9.64911 14.8625C7.89569 17.5541 7.01351 20.5717 7.00016 23.9249C6.98069 28.8156 8.7252 32.9695 12.1948 36.2943C14.3178 38.3286 16.515 39.602 19.441 40.494C20.8882 40.9352 21.3821 40.9917 23.8524 40.9995C26.1857 41.0069 26.8882 40.9398 28.2104 40.5832C38.7359 37.7457 44.0103 26.1817 39.2174 16.4503C38.3548 14.6986 37.5806 13.625 36.0475 12.0547C33.0032 8.9362 29.0183 7.18378 24.5942 7.01783C23.4722 6.97583 22.137 7.01058 21.627 7.09532ZM27.8396 9.89865C30.3027 10.5944 32.3504 11.8127 34.2375 13.7053C36.0668 15.5397 36.8638 16.7463 37.6615 18.8892C39.8627 24.8021 38.116 31.3017 33.222 35.4071C32.0107 36.4233 30.3641 37.3017 28.3742 37.9932C26.7161 38.5697 26.5075 38.5977 23.9451 38.592C21.3921 38.5864 21.1645 38.5548 19.4421 37.9665C11.9223 35.3988 7.75197 27.5433 9.9347 20.0583C10.5205 18.049 11.0995 16.8716 12.3131 15.2217C14.4789 12.2771 18.2116 10.0546 21.9979 9.45524C23.2061 9.26402 26.4696 9.51174 27.8396 9.89865ZM21.4792 16.1741C21.1015 16.5618 20.7925 16.9598 20.7925 17.0587C20.7925 17.1577 22.3364 18.784 24.2233 20.6728L27.6543 24.107L24.2233 27.5487C22.3364 29.4414 20.7925 31.126 20.7925 31.292C20.7925 31.4579 21.1373 31.906 21.5586 32.2875L22.3249 32.9811L26.7039 28.5929L31.0829 24.2046L26.7274 19.8371C24.3318 17.4348 22.3254 15.4694 22.2689 15.4694C22.2123 15.4694 21.857 15.7865 21.4792 16.1741Z" fill="#333333"/>
</svg>
