<svg width="48" height="48" viewBox="0 0 48 48" fill="none" xmlns="http://www.w3.org/2000/svg">
<path fill-rule="evenodd" clip-rule="evenodd" d="M12.8895 10.8671C10.2004 13.5442 8 15.8118 8 15.9065C8 16.0013 10.2199 18.2865 12.9331 20.9848L17.8662 25.8908L18.514 25.246L19.162 24.6015L15.4853 20.9403C13.4632 18.9268 11.8087 17.2184 11.8087 17.144C11.8087 17.0696 15.6066 17.0322 20.2484 17.0611L28.688 17.1137L29.9579 17.5734C31.804 18.2417 33.0176 19.0146 34.4306 20.4219C37.4821 23.4612 38.5338 27.9962 37.1279 32.054C35.9335 35.5017 33.4087 37.9938 29.8133 39.274C28.7024 39.6695 28.5701 39.6757 19.5126 39.7608L10.3371 39.8469L10.2856 40.9234L10.2341 42H19.0602C28.7176 42 29.1027 41.9685 31.5435 40.9791C35.3033 39.4549 38.3953 35.9684 39.4979 32.0096C41.5742 24.5546 37.019 16.9499 29.3805 15.119C28.1152 14.8157 27.2966 14.7869 19.9021 14.7859C15.4506 14.7852 11.8087 14.7258 11.8087 14.654C11.8087 14.5821 13.4447 12.8968 15.4442 10.9091C17.4438 8.92134 19.0798 7.24209 19.0798 7.17749C19.0798 6.95908 18.1849 6 17.9813 6C17.87 6 15.5787 8.19014 12.8895 10.8671Z" fill="#333333"/>
</svg>
