<svg width="49" height="48" viewBox="0 0 49 48" fill="none" xmlns="http://www.w3.org/2000/svg">
<path fill-rule="evenodd" clip-rule="evenodd" d="M23.3222 38.3906C23.674 38.0554 23.9619 37.7047 23.9619 37.6115C23.9619 37.5183 21.2441 34.6657 17.9223 31.2723C13.7059 26.9652 11.9511 25.0758 12.1095 25.0137C12.2343 24.9648 18.5608 24.9248 26.1682 24.9248H40V23.9971V23.0695H26.0298C18.3461 23.0695 12.0237 23.033 11.98 22.9884C11.9364 22.9437 14.6145 20.1344 17.9313 16.7453C21.2482 13.3563 23.9619 10.5055 23.9619 10.4101C23.9619 10.3149 23.6728 9.95854 23.3194 9.61841L22.6769 9L15.3385 16.4986L8 23.9971L15.3412 31.4986L22.6825 39L23.3222 38.3906Z" fill="#333333"/>
</svg>
