<svg width="48" height="48" viewBox="0 0 48 48" fill="none" xmlns="http://www.w3.org/2000/svg">
<path fill-rule="evenodd" clip-rule="evenodd" d="M15.9059 14.6915C11.5577 18.9217 8 22.4585 8 22.551C8 22.76 9.19765 23.9118 9.41523 23.9118C9.50282 23.9118 12.5171 21.0489 16.1135 17.5498C19.7099 14.0506 22.7086 11.1877 22.7773 11.1877C22.8461 11.1877 22.9024 17.8954 22.9024 26.0939V41L23.9372 40.9522L24.9721 40.9042L25.0114 26.1667C25.0331 18.0611 25.0516 11.3209 25.0528 11.1885C25.0539 11.0559 28.0962 13.9052 31.8133 17.5201L38.5717 24.0927L39.2858 23.3391L40 22.5854L31.99 14.7928C27.5843 10.5067 23.942 7 23.8958 7C23.8497 7 20.254 10.4611 15.9059 14.6915Z" fill="#333333"/>
</svg>
