<svg width="48" height="48" viewBox="0 0 48 48" fill="none" xmlns="http://www.w3.org/2000/svg">
<path fill-rule="evenodd" clip-rule="evenodd" d="M32.0941 33.3085C36.4423 29.0783 40 25.5415 40 25.449C40 25.24 38.8023 24.0882 38.5848 24.0882C38.4972 24.0882 35.4829 26.9511 31.8865 30.4502C28.2901 33.9494 25.2914 36.8123 25.2227 36.8123C25.1539 36.8123 25.0976 30.1046 25.0976 21.9061L25.0976 7L24.0628 7.04784L23.0279 7.09583L22.9886 21.8333C22.9669 29.9389 22.9484 36.6791 22.9472 36.8115C22.9461 36.9441 19.9038 34.0948 16.1867 30.4799L9.42831 23.9073L8.71415 24.6609L8 25.4146L16.01 33.2072C20.4157 37.4933 24.058 41 24.1042 41C24.1503 41 27.746 37.5389 32.0941 33.3085Z" fill="#333333"/>
</svg>
