<svg width="49" height="48" viewBox="0 0 49 48" fill="none" xmlns="http://www.w3.org/2000/svg">
<path fill-rule="evenodd" clip-rule="evenodd" d="M20.3355 6.20551C18.5012 6.68976 16.984 8.00801 16.3492 9.66901C16.0111 10.5536 16 10.9832 16 23.0648C16 34.9514 16.016 35.5923 16.3355 36.5017C17.3537 39.3992 19.7492 41.3992 22.8057 41.9039C26.7993 42.5635 30.9483 39.7512 31.8043 35.8046C31.9377 35.1889 32 31.3884 32 23.843V12.7836H30.8732H29.7463L29.6993 24.1493L29.6522 35.515L29.201 36.4515C28.6235 37.6502 27.4763 38.7699 26.2609 39.3214C25.5122 39.6613 25.0202 39.7573 23.9963 39.7636C22.8597 39.7707 22.5363 39.6985 21.5273 39.2121C20.1334 38.5404 19.1122 37.4744 18.6144 36.1722C18.271 35.273 18.2609 34.8972 18.2609 22.9278V10.6086L18.8261 9.79246C20.0645 8.00409 22.3266 7.69675 23.9539 9.09554C25.0868 10.0695 25.0435 9.52752 25.0435 22.7127C25.0435 34.1056 25.0278 34.7099 24.7254 34.9777C24.2941 35.36 23.553 35.3328 23.1304 34.919C22.7906 34.5863 22.7826 34.3515 22.7826 24.7796V14.981L21.6957 15.0316L20.6087 15.0823L20.563 24.8729C20.5296 32.0504 20.5718 34.8 20.7212 35.1744C21.4783 37.0711 23.5066 37.9641 25.3471 37.2112C26.1732 36.8732 26.5682 36.515 26.975 35.7346C27.2892 35.1318 27.3043 34.5349 27.3042 22.7088L27.304 10.3147L26.8085 9.28931C26.1217 7.86771 24.8403 6.76383 23.3562 6.315C22.0736 5.92729 21.4725 5.90549 20.3355 6.20551Z" fill="#333333"/>
</svg>
