<svg width="48" height="48" viewBox="0 0 48 48" fill="none" xmlns="http://www.w3.org/2000/svg">
<path fill-rule="evenodd" clip-rule="evenodd" d="M34.0954 12.3302C31.0639 15.3732 28.5285 17.8629 28.4611 17.8629C28.3936 17.8629 28.3384 16.3235 28.3384 14.4421V11.0213H27.2833H26.2281V16.3991V21.7768L31.5444 21.7339L36.8606 21.6909L36.909 20.6728L36.9572 19.6547H33.4595C31.5356 19.6547 29.9617 19.5993 29.9617 19.5316C29.9617 19.464 32.4453 16.9171 35.4808 13.872C38.5164 10.8268 41 8.28336 41 8.21967C41 8.10678 40.5585 7.63813 39.9233 7.0768C39.6173 6.80623 39.4313 6.97401 34.0954 12.3302ZM11.1316 27.0665V28.1253H14.6216C16.5412 28.1253 18.1117 28.1798 18.1117 28.2466C18.1117 28.3133 15.6115 30.8775 12.5559 33.9449L7 39.5219L7.72269 40.2609L8.44554 41L14.0902 35.3373L19.735 29.6746V33.2166V36.7587H20.7901H21.8453V31.3832V26.0076H16.4884H11.1316V27.0665Z" fill="#333333"/>
</svg>
