<svg width="48" height="48" viewBox="0 0 48 48" fill="none" xmlns="http://www.w3.org/2000/svg">
<path fill-rule="evenodd" clip-rule="evenodd" d="M20.5087 6.71168C16.7142 7.3979 12.804 9.72456 10.3174 12.7758C9.0649 14.313 7.32928 17.6639 6.85134 19.4677C6.34929 21.3632 6.2296 25.3089 6.61319 27.3265C7.94195 34.3172 13.3818 39.8381 20.3945 41.3133C22.2546 41.7045 25.7374 41.6967 27.6737 41.2966C34.6198 39.862 40.2431 33.966 41.3726 26.9333C41.6866 24.9791 41.5275 21.212 41.0576 19.4677C40.8745 18.7879 40.2742 17.3046 39.7235 16.1716C36.2611 9.04658 28.5609 5.25561 20.5087 6.71168ZM27.1897 9.3797C28.0185 9.55336 29.5745 10.1213 30.6472 10.6423C32.3086 11.4491 32.8748 11.8679 34.4666 13.4684C37.5272 16.5459 38.8941 19.7788 38.8941 23.9408C38.8941 27.26 37.9401 30.3654 36.1962 32.7227L35.5345 33.6172L25.0598 23.1442C19.2988 17.384 14.5853 12.578 14.5855 12.4643C14.5861 12.1594 16.3457 11.0212 17.8996 10.3203C20.5701 9.11621 24.183 8.75034 27.1897 9.3797ZM22.9791 24.9776C28.6732 30.6709 33.3319 35.4462 33.3319 35.5898C33.3319 35.7331 32.8305 36.1713 32.2178 36.5631C26.1212 40.4631 18.4245 39.6759 13.3853 34.6368C11.0059 32.2572 9.51564 29.1685 9.03091 25.6109C8.75156 23.5617 9.13844 20.6995 9.9837 18.5634C10.5791 17.0583 12.0798 14.6265 12.4134 14.6265C12.5306 14.6265 17.2853 19.2846 22.9791 24.9776Z" fill="#333333"/>
</svg>
