<svg width="48" height="48" viewBox="0 0 48 48" fill="none" xmlns="http://www.w3.org/2000/svg">
<path fill-rule="evenodd" clip-rule="evenodd" d="M14.1017 10.0169V11.0339H11.0508H8V25.0169V39H24.017H40.0339V25.0169V11.0339H36.9831H33.9322V10.0169C33.9322 9.02415 33.9111 9 33.0424 9C32.1736 9 32.1525 9.02415 32.1525 10.0169V11.0339H24.017H15.8814V10.0169C15.8814 9.02415 15.8603 9 14.9915 9C14.1228 9 14.1017 9.02415 14.1017 10.0169ZM14.1017 13.9576C14.1017 14.805 14.1442 14.8475 14.9915 14.8475C15.8389 14.8475 15.8814 14.805 15.8814 13.9576V13.0678H24.017H32.1525V13.9576C32.1525 14.805 32.195 14.8475 33.0424 14.8475C33.8897 14.8475 33.9322 14.805 33.9322 13.9576V13.0678H35.9661H38V15.1017V17.1356H24.017H10.0339V15.1017V13.0678H12.0678H14.1017V13.9576ZM38 27.9407V36.9661H24.017H10.0339V27.9407V18.9153H24.017H38V27.9407ZM26 26V27H28V25H27.0831H26V26Z" fill="#333333"/>
<path d="M26 22.9831V21.9831V20.9831H27.0831H28V22.9831H26Z" fill="#333333"/>
<path d="M32 22.9834V21.9834V20.9834H33.0831H34V22.9834H32Z" fill="#333333"/>
<path d="M32 27V26V25H33.0831H34V27H32Z" fill="#333333"/>
<path d="M32 31V30V29H33.0831H34V31H32Z" fill="#333333"/>
<path d="M26 31V30V29H27.0831H28V31H26Z" fill="#333333"/>
<path d="M19.9831 22.9831V21.9831V20.9831H21.0661H21.9831V22.9831H19.9831Z" fill="#333333"/>
<path d="M19.9831 31V30V29H21.0661H21.9831V31H19.9831Z" fill="#333333"/>
<path d="M19.9831 27V26V25H21.0661H21.9831V27H19.9831Z" fill="#333333"/>
<path d="M19.9831 34.9322V33.9322V32.9322H21.0661H21.9831V34.9322H19.9831Z" fill="#333333"/>
<path d="M14.1017 31V30V29H15.1847H16.1017V31H14.1017Z" fill="#333333"/>
<path d="M14.1017 34.9322V33.9322V32.9322H15.1847H16.1017V34.9322H14.1017Z" fill="#333333"/>
<path d="M14.1017 27V26V25H15.1847H16.1017V27H14.1017Z" fill="#333333"/>
</svg>
