<svg width="36" height="36" viewBox="0 0 36 36" fill="none" xmlns="http://www.w3.org/2000/svg">
<path fill-rule="evenodd" clip-rule="evenodd" d="M21.5256 11.1071L21.4905 15.2143H20.7595H20.0285L19.9909 13.7357L19.9533 12.2571H13.9766H8V21.1286V30H8.72995H9.46003L9.49419 21.8843L9.52848 13.7686L14.0142 13.734L18.5 13.6993V14.4897V15.28H16.2405H13.981V22.64V30H16.2405H18.5V27.7657V25.5314H19.231H19.962V27.7657V30H22.2215H24.481V22.64V15.28H23.75H23.019V12.9143C23.019 11.6131 23.0646 10.5486 23.1201 10.5486C23.1758 10.5486 24.1926 11.5102 25.3796 12.6857L27.538 14.8229V22.4114V30H28.269H29V22.0805V14.161L25.3772 10.5805C23.3848 8.61118 21.711 7 21.6577 7C21.6044 7 21.545 8.84828 21.5256 11.1071ZM11.057 16.0029V16.7257H11.788H12.519V16.0029V15.28H11.788H11.057V16.0029ZM22.9871 22.6071L22.9525 28.4886H22.2215H21.4905L21.4541 26.2871L21.4177 24.0857H19.231H17.0444L17.0079 26.2871L16.9715 28.4886H16.2405H15.5095L15.4749 22.6071L15.4402 16.7257H19.231H23.0218L22.9871 22.6071ZM11.057 18.8943V19.6171H11.788H12.519V18.8943V18.1714H11.788H11.057V18.8943ZM17.038 18.8943V19.6171H17.769H18.5V18.8943V18.1714H17.769H17.038V18.8943ZM19.962 18.8943V19.6171H20.693H21.4241V18.8943V18.1714H20.693H19.962V18.8943ZM11.057 21.924V22.6538L11.7547 22.614L12.4525 22.5743L12.4927 21.8843L12.5329 21.1943H11.7949H11.057V21.924ZM17.038 21.9171V22.64H17.769H18.5V21.9171V21.1943H17.769H17.038V21.9171ZM19.9883 21.8843L20.0285 22.5743L20.7263 22.614L21.4241 22.6538V21.924V21.1943H20.6861H19.9481L19.9883 21.8843ZM11.057 24.8017V25.5314H11.7949H12.5329L12.4927 24.8414L12.4525 24.1514L11.7547 24.1117L11.057 24.0719V24.8017ZM11.057 27.8314V28.5543H11.788H12.519V27.8314V27.1086H11.788H11.057V27.8314Z" fill="#333333" stroke="#333333" stroke-width="0.2"/>
</svg>
