<svg width="50" height="49" viewBox="0 0 50 49" fill="none" xmlns="http://www.w3.org/2000/svg">
<path fill-rule="evenodd" clip-rule="evenodd" d="M7.04226 20.6852L7.08468 32.3705L9.27191 32.4153L11.4591 32.4601V36.23C11.4591 38.3035 11.5154 40 11.5843 40C11.6531 40 13.4534 38.3019 15.5848 36.2265L19.4603 32.453L30.6878 32.4117L41.9153 32.3705L41.9577 20.6852L42 9H24.5H7L7.04226 20.6852ZM39.8119 20.6852L39.8545 30.2021H29.2596H18.6646L16.2517 32.5311C14.9247 33.812 13.7883 34.8601 13.7266 34.8601C13.6647 34.8601 13.5936 33.8302 13.5683 32.5712L13.5226 30.2824L11.3766 30.2021L9.23065 30.1218L9.18509 20.9663C9.15999 15.9308 9.17997 11.6479 9.22966 11.4487L9.31995 11.0865L24.5446 11.1274L39.7694 11.1684L39.8119 20.6852Z" fill="#333333"/>
</svg>
