<svg width="50" height="48" viewBox="0 0 50 48" fill="none" xmlns="http://www.w3.org/2000/svg">
<path fill-rule="evenodd" clip-rule="evenodd" d="M22.7092 7.07062C15.5301 8.21283 10.2694 12.8343 8.32158 19.71C7.84071 21.4071 7.65374 24.6743 7.93378 26.4848C8.94037 32.9932 13.3989 38.2349 19.6443 40.2523C21.3721 40.8105 22.6805 41 24.8062 41C26.9351 41 28.2435 40.81 29.9682 40.2507C35.5511 38.4401 39.7236 34.0633 41.2627 28.4032C41.7655 26.5542 41.9479 23.6257 41.6785 21.7263C40.6991 14.8211 35.7013 9.23874 28.9504 7.50969C27.41 7.11514 23.9568 6.87221 22.7092 7.07062ZM28.4356 9.54683C34.2758 11.0412 38.7183 15.9409 39.5807 21.8387C39.8362 23.5863 39.6802 26.3832 39.2406 27.9366C37.7141 33.33 33.2417 37.549 27.8767 38.6572C26.3394 38.9748 23.2872 38.9777 21.7639 38.663C15.861 37.4438 11.1295 32.5737 10.0896 26.6461C9.79742 24.9806 9.89228 21.8607 10.278 20.4523C11.5209 15.913 14.486 12.3541 18.6104 10.4506C19.8312 9.88703 21.2708 9.45328 22.7092 9.21535C24.05 8.99355 26.9235 9.15986 28.4356 9.54683ZM27.1453 22.3715C24.1741 25.3436 21.6711 27.7753 21.5831 27.7753C21.495 27.7753 20.4248 26.7792 19.205 25.5618L16.9873 23.3482L16.2564 24.0656L15.5256 24.7827L18.4705 27.7308C20.0903 29.3522 21.4892 30.6788 21.5792 30.6788C21.796 30.6788 33.9204 18.5474 33.9204 18.3305C33.9204 18.169 32.776 16.9677 32.6221 16.9677C32.581 16.9677 30.1165 19.3994 27.1453 22.3715Z" fill="#333333"/>
</svg>
