<svg width="48" height="48" viewBox="0 0 48 48" fill="none" xmlns="http://www.w3.org/2000/svg">
<path fill-rule="evenodd" clip-rule="evenodd" d="M35.516 21.1562C34.8617 21.3913 33.1727 22.9568 28.5688 27.596L22.4861 33.7256L21.7412 36.8405C21.3314 38.5537 21.0055 39.9748 21.0169 39.9985C21.0285 40.0221 22.417 39.6935 24.1028 39.2682L27.1676 38.4949L33.1676 32.4803C40.2824 25.3481 40.5772 24.8945 39.5638 22.6432C39.2383 21.9201 38.9149 21.5941 38.1976 21.2659C37.0875 20.7579 36.6718 20.7411 35.516 21.1562ZM37.526 23.3142C38.238 24.2419 38.236 24.2443 31.9846 30.5616C26.3781 36.2272 25.8519 36.6996 24.903 36.9185C24.3392 37.0486 23.8466 37.1235 23.8084 37.0848C23.77 37.0464 23.851 36.5817 23.9883 36.0525C24.2065 35.2102 24.9795 34.3402 30.1978 29.064C34.9867 24.2222 36.2717 23.0377 36.7361 23.0377C37.0539 23.0377 37.4093 23.1622 37.526 23.3142Z" fill="#333333"/>
<path fill-rule="evenodd" clip-rule="evenodd" d="M9 23.5V41H20L19.9593 38.8033L25.5 38L30 34L38.5 25.5V22.3389L34.8023 19.8957H37V15.3699L32.4002 10.6849L27.8002 6H18.4002H9V23.5ZM26.2179 12.5908L26.2612 16.9424L30.5318 16.9865L34.8023 17.0308V19.8957L38.5 22.3389V25.5L30 34L25.5 38L19.9593 38.8033L11.1163 38.8458V23.4995V8.15308L18.6453 8.19621L26.1744 8.23934L26.2179 12.5908ZM33.093 14.6649C33.093 14.7346 32.0308 14.7915 30.7326 14.7915H28.3721V12.264V9.73654L30.7326 12.1374C32.0308 13.458 33.093 14.5952 33.093 14.6649ZM15.5116 22.3389V23.4171H23H30.3513L31.3513 22.5L32.8513 21.2607H23H15.5116V22.3389ZM15.5116 26.8175V27.8957H23H26L27.2612 26.8175L28.4884 25.7393H23H15.5116V26.8175ZM15.5116 31.1303V32.2085H21.5L22.824 31L23.824 30.0521H22.324H15.5116V31.1303Z" fill="#333333"/>
</svg>
