<svg width="49" height="48" viewBox="0 0 49 48" fill="none" xmlns="http://www.w3.org/2000/svg">
<path fill-rule="evenodd" clip-rule="evenodd" d="M11.1677 7.14735V10.9636L7.29826 11.0167L3.42888 11.0698L3.37069 12.2902L3.3125 13.5104L7.1911 13.5637L11.0697 13.6168L11.1202 25.2234L11.1708 36.83L22.7774 36.8805L34.384 36.9311L34.4371 40.8004L34.4902 44.6698H35.7554H37.0206L37.0737 40.8004L37.1268 36.9311L41.0054 36.878L44.884 36.8247L44.8258 35.6045L44.7677 34.3841L40.8983 34.331L37.0289 34.2779V23.5536V12.8292L40.6534 9.20861C42.6468 7.21729 44.2779 5.51417 44.2779 5.42386C44.2779 5.33354 43.9162 4.90154 43.4744 4.46405L42.6707 3.66843L39.0153 7.32015L35.3598 10.9719H24.5371H13.7146V7.15146V3.33105H12.4411H11.1677V7.14735ZM32.5228 13.6609C32.5228 13.8517 14.0551 32.327 13.8643 32.327C13.6809 32.327 13.6621 13.8327 13.8453 13.6495C14.0234 13.4712 32.5228 13.4826 32.5228 13.6609ZM34.4819 24.98V34.2862H25.1758C20.0574 34.2862 15.8697 34.2203 15.8697 34.14C15.8697 33.9478 34.1422 15.6739 34.3342 15.6739C34.4155 15.6739 34.4819 19.8617 34.4819 24.98Z" fill="#333333"/>
</svg>
