<svg width="48" height="48" viewBox="0 0 48 48" fill="none" xmlns="http://www.w3.org/2000/svg">
<path fill-rule="evenodd" clip-rule="evenodd" d="M31.2312 14.9798C27.3953 18.8187 24.1662 21.9596 24.0553 21.9596C23.9445 21.9596 20.7598 18.8632 16.9783 15.0787C13.1967 11.2942 9.96283 8.19785 9.79199 8.19785C9.40405 8.19785 8.20673 9.41088 8.20673 9.80398C8.20673 9.96394 11.3017 13.1902 15.0844 16.9734C18.8672 20.7567 21.9621 23.9419 21.9621 24.0516C21.9621 24.1612 18.8207 27.3951 14.9812 31.2374L8 38.2237L8.90447 39.1119L9.80893 40L16.8822 32.9255L23.9556 25.851L30.9838 32.8802C34.8495 36.7464 38.1055 39.9096 38.2198 39.9096C38.4742 39.9096 39.9039 38.4689 39.9039 38.2126C39.9039 38.1111 36.7428 34.8607 32.8791 30.9897L25.8543 23.9512L32.9271 16.8731L40 9.79501L39.1029 8.8975L38.2056 8L31.2312 14.9798Z" fill="#333333"/>
</svg>
