<svg width="48" height="48" viewBox="0 0 48 48" fill="none" xmlns="http://www.w3.org/2000/svg">
<path fill-rule="evenodd" clip-rule="evenodd" d="M13.5391 9.13646C13.1721 9.2389 12.6335 9.59249 12.2502 9.9826C11.6184 10.6257 11.4998 10.9326 9.29599 17.633C8.03312 21.4723 7 24.8523 7 25.1442C7 26.2704 7.72167 27.3927 8.80618 27.9531C9.34707 28.2327 9.78999 28.2621 13.4608 28.2621H17.5179L17.424 29.0603C17.3724 29.4995 17.0302 30.569 16.6633 31.4372C15.5317 34.1162 15.2388 36.8107 15.971 37.8065C16.7358 38.847 18.164 39.2939 19.1351 38.7967C19.3286 38.6976 22.0609 36.0384 25.2068 32.8874C29.5848 28.5023 31.1345 27.0497 31.8128 26.6956L32.699 26.2327L36.8495 26.18L41 26.1272L40.9581 18.6309L40.9162 11.1346L35.8409 11.0489L30.7655 10.963L29.1543 10.3526C25.8648 9.10642 25.5824 9.06697 19.5675 9.0108C16.0303 8.97768 13.9526 9.02103 13.5391 9.13646ZM28.0264 12.1433C30.8815 13.1428 32.1156 13.323 36.1228 13.325L38.9022 13.3263V18.6837V24.0411H36.1164C33.0933 24.0411 32.132 24.2005 30.6419 24.9489C29.9957 25.2736 28.4583 26.7186 24.0601 31.1354C19.9019 35.3113 18.2378 36.8824 18.018 36.8406C17.3416 36.7112 17.5831 34.6901 18.5579 32.3207C19.3437 30.4109 19.549 29.565 19.6713 27.7344L19.7771 26.1516H14.758C9.95385 26.1516 9.72522 26.1376 9.41683 25.8269C9.2396 25.6483 9.09459 25.3514 9.09459 25.1671C9.09459 24.8283 12.2381 15.1408 13.1168 12.7715C13.379 12.0647 13.6871 11.4246 13.8011 11.3492C13.9154 11.2739 16.619 11.2312 19.8092 11.2546L25.6096 11.297L28.0264 12.1433Z" fill="#333333"/>
</svg>
