<svg width="48" height="48" viewBox="0 0 48 48" fill="none" xmlns="http://www.w3.org/2000/svg">
<path fill-rule="evenodd" clip-rule="evenodd" d="M21.6505 7.11825C15.5752 7.93124 10.6938 11.5095 8.30668 16.8995C7.41289 18.918 7.1081 20.3044 7.01515 22.7744C6.84744 27.2371 8.0691 30.8609 10.8458 34.137C13.8418 37.672 18.8503 40.0028 23.4447 40C25.2379 39.9989 29.155 39.2076 29.6415 38.7482C29.8439 38.5572 29.1145 36.8474 28.8703 36.9404C26.9608 37.6678 24.4214 38.0576 22.5295 37.9132C16.2848 37.4371 11.0676 33.1506 9.38873 27.1166C8.99225 25.6919 8.91216 22.2583 9.23783 20.6558C10.3775 15.0497 14.7739 10.6372 20.5132 9.33943C22.2329 8.95047 25.0672 8.98648 26.8229 9.41925C31.1141 10.4773 34.7875 13.4365 36.6388 17.3263C37.6138 19.3751 37.944 20.8385 37.9564 23.1641C37.9663 25.0541 37.9272 25.372 37.5731 26.282C37.0356 27.6627 36.4487 28.5348 35.6888 29.0812C34.0204 30.2811 31.5302 29.6044 30.2902 27.6142L29.8158 26.8528L29.7373 21.0722L29.6588 15.2915H28.7166H27.7745L27.7283 16.4217C27.703 17.0432 27.6432 17.5519 27.5954 17.5519C27.5477 17.5519 27.1886 17.2722 26.7973 16.9304C24.1634 14.6284 20.3403 14.76 17.7993 17.2401C15.7134 19.2761 14.7656 22.5991 15.4413 25.5073C15.9555 27.7206 17.4102 29.7732 19.2136 30.8305C21.9861 32.4558 25.7366 31.6909 27.7506 29.0893C28.0166 28.7456 28.2721 28.4678 28.3184 28.4718C28.3647 28.4759 28.6395 28.809 28.9292 29.2123C29.5872 30.1285 30.572 30.886 31.6525 31.3069C32.8208 31.7619 34.8718 31.7671 35.8804 31.3175C37.4596 30.6135 38.8502 28.8737 39.5843 26.6839C39.964 25.5511 40.0056 25.2052 39.9995 23.242C39.9935 21.4104 39.928 20.8196 39.5917 19.567C38.7659 16.4917 37.5847 14.3589 35.4732 12.1306C32.0303 8.49713 26.4548 6.47535 21.6505 7.11825ZM24.3199 17.6871C25.1955 18.0834 25.8498 18.667 26.487 19.62C28.6247 22.8177 27.6787 27.4413 24.5327 29.1713C23.8077 29.5699 23.5294 29.6332 22.5141 29.6304C20.4626 29.6248 18.898 28.5499 17.9135 26.4692C17.4829 25.5594 17.4113 25.22 17.3584 23.84C17.2855 21.938 17.6211 20.7233 18.5909 19.3788C19.1282 18.6337 20.2228 17.7619 20.9439 17.5047C21.5376 17.2928 23.7078 17.41 24.3199 17.6871Z" fill="#333333"/>
</svg>
