<svg width="48" height="48" viewBox="0 0 48 48" fill="none" xmlns="http://www.w3.org/2000/svg">
<path fill-rule="evenodd" clip-rule="evenodd" d="M15.4396 32.8018L24.1585 41.5195L24.9469 40.7313L25.7352 39.943L17.8057 32.0124C13.4447 27.6504 9.87641 24.0075 9.87641 23.9168C9.87641 23.8261 13.4434 20.1844 17.8029 15.8242L25.7295 7.89644L25.0771 7.22843C24.7184 6.86104 24.3463 6.56041 24.2503 6.56041C24.0818 6.56041 6.7207 23.8333 6.7207 24.001C6.7207 24.0467 10.6442 28.0071 15.4396 32.8018ZM30.8831 32.799L39.5992 41.5139L40.2672 40.8615C40.6346 40.5027 40.9352 40.1314 40.9352 40.036C40.9352 39.9407 37.3666 36.2935 33.0051 31.9313L25.075 23.9999L33.0913 15.9822L41.1076 7.96454L40.3539 7.22477L39.6 6.48501L30.8836 15.2003C26.0895 19.9938 22.1671 23.9535 22.1671 23.9999C22.1671 24.0462 26.0893 28.0058 30.8831 32.799Z" fill="#333333"/>
</svg>
