<svg width="48" height="48" viewBox="0 0 48 48" fill="none" xmlns="http://www.w3.org/2000/svg">
<path fill-rule="evenodd" clip-rule="evenodd" d="M32.7139 32.4774L41.4316 23.7585L40.6434 22.9701L39.8551 22.1818L31.9245 30.1113C27.5625 34.4723 23.9196 38.0406 23.8289 38.0406C23.7382 38.0406 20.0966 34.4736 15.7364 30.1141L7.80855 22.1875L7.14054 22.8399C6.77315 23.1986 6.47252 23.5707 6.47252 23.6667C6.47252 23.8352 23.7454 41.1963 23.9131 41.1963C23.9588 41.1963 27.9192 37.2727 32.7139 32.4774ZM32.7111 17.0339L41.426 8.31778L40.7736 7.64977C40.4148 7.28238 40.0435 6.98175 39.9481 6.98175C39.8528 6.98175 36.2056 10.5504 31.8434 14.9119L23.912 22.842L15.8943 14.8257L7.87665 6.80936L7.13688 7.56307L6.39712 8.31695L15.1124 17.0334C19.9059 21.8275 23.8656 25.7499 23.912 25.7499C23.9583 25.7499 27.9179 21.8277 32.7111 17.0339Z" fill="#333333"/>
</svg>
