<svg width="48" height="48" viewBox="0 0 48 48" fill="none" xmlns="http://www.w3.org/2000/svg">
<path fill-rule="evenodd" clip-rule="evenodd" d="M32.3885 15.2041L23.6696 6.48633L22.8812 7.27459L22.0929 8.06286L30.0224 15.9935C34.3834 20.3555 37.9517 23.9984 37.9517 24.089C37.9517 24.1797 34.3848 27.8214 30.0252 32.1816L22.0986 40.1094L22.751 40.7774C23.1097 41.1448 23.4818 41.4454 23.5778 41.4454C23.7464 41.4454 41.1074 24.1726 41.1074 24.0048C41.1074 23.9592 37.1839 19.9987 32.3885 15.2041ZM16.945 15.2069L8.22892 6.49198L7.5609 7.14438C7.19351 7.50313 6.89289 7.87451 6.89289 7.96984C6.89289 8.06518 10.4615 11.7123 14.823 16.0745L22.7532 24.006L14.7368 32.0237L6.72049 40.0413L7.47421 40.7811L8.22808 41.5209L16.9445 32.8056C21.7387 28.0121 25.6611 24.0523 25.6611 24.006C25.6611 23.9597 21.7388 20.0001 16.945 15.2069Z" fill="#333333"/>
</svg>
