<svg width="48" height="48" viewBox="0 0 48 48" fill="none" xmlns="http://www.w3.org/2000/svg">
<path fill-rule="evenodd" clip-rule="evenodd" d="M15.1142 15.5285L6.39648 24.2474L7.18475 25.0358L7.97301 25.824L15.9036 17.8946C20.2657 13.5336 23.9085 9.96528 23.9992 9.96528C24.0899 9.96528 27.7316 13.5322 32.0918 17.8918L40.0196 25.8184L40.6876 25.166C41.055 24.8072 41.3556 24.4352 41.3556 24.3392C41.3556 24.1706 24.0827 6.80957 23.915 6.80957C23.8693 6.80957 19.9089 10.7331 15.1142 15.5285ZM15.117 30.972L6.40213 39.6881L7.05453 40.3561C7.41329 40.7235 7.78466 41.0241 7.88 41.0241C7.97534 41.0241 11.6225 37.4555 15.9847 33.094L23.9162 25.1638L31.9338 33.1802L39.9515 41.1965L40.6912 40.4428L41.431 39.6889L32.7158 30.9725C27.9222 26.1783 23.9625 22.2559 23.9162 22.2559C23.8698 22.2559 19.9102 26.1782 15.117 30.972Z" fill="#333333"/>
</svg>
