<svg width="48" height="48" viewBox="0 0 48 48" fill="none" xmlns="http://www.w3.org/2000/svg">
<path fill-rule="evenodd" clip-rule="evenodd" d="M22.9705 18.441C22.9705 25.2838 22.9207 31.0112 22.8597 31.1687C22.7743 31.3899 21.816 30.5296 18.6537 27.3932L14.5582 23.3312L13.7791 24.0901L13 24.849L18.4577 30.27C21.4594 33.2515 23.9927 35.6687 24.0872 35.6418C24.1817 35.615 26.6757 33.1751 29.6296 30.2197L35 24.8465L34.2221 24.0889L33.4444 23.3312L29.3252 27.4167L25.2061 31.5021L25.162 18.8018L25.118 6.10145L24.0442 6.05064L22.9705 6V18.441ZM13.8566 40.0238C13.6461 40.2327 13.6434 41.7719 13.8533 41.9008C13.9413 41.9546 18.5219 41.9991 24.0324 41.9993L34.0515 42L34.1013 40.9309L34.1511 39.8618H24.0855C17.9574 39.8618 13.9561 39.9253 13.8566 40.0238Z" fill="#333333"/>
</svg>
