<svg width="48" height="48" viewBox="0 0 48 48" fill="none" xmlns="http://www.w3.org/2000/svg">
<path fill-rule="evenodd" clip-rule="evenodd" d="M3.73609 11.5681C3.68578 11.7002 3.66678 17.3809 3.69423 24.1921L3.74396 36.5761L24.048 36.6251L44.352 36.6739V24.0011V11.3281H24.09C8.05724 11.3281 3.80886 11.3782 3.73609 11.5681ZM41.28 13.9197C41.28 13.9723 37.3923 15.9595 32.6407 18.3357L24.0013 22.6563L15.4567 18.3853C10.7571 16.0362 6.91196 14.049 6.91196 13.9691C6.91196 13.8894 14.6448 13.8241 24.096 13.8241C33.5472 13.8241 41.28 13.8671 41.28 13.9197ZM15.2634 21.0712L24 25.4382L32.7365 21.0712C37.5415 18.6692 41.5591 16.7041 41.6645 16.7041C41.7889 16.7041 41.856 19.7613 41.856 25.4411V34.178L24.048 34.1291L6.23996 34.0801L6.18985 25.6321C6.14281 17.7048 6.1693 16.7041 6.42543 16.7041C6.48111 16.7041 10.4584 18.6692 15.2634 21.0712Z" fill="#333333"/>
</svg>
