<svg width="49" height="48" viewBox="0 0 49 48" fill="none" xmlns="http://www.w3.org/2000/svg">
<path fill-rule="evenodd" clip-rule="evenodd" d="M15.4194 13.2345L7 17.4598V28.23V39H24H41V28.23V17.4598L32.5398 13.2255C27.8868 10.8965 24.0256 8.99501 23.9592 9.00001C23.893 9.00501 20.0502 10.9104 15.4194 13.2345ZM31.3324 14.9608C35.2316 16.9132 38.4218 18.5658 38.4218 18.6332C38.4218 18.7005 37.2428 19.9346 35.8015 21.3755L33.1813 23.9955H24H14.8187L12.1985 21.3755C10.7572 19.9346 9.5782 18.7005 9.5782 18.6332C9.5782 18.4662 23.6055 11.4309 23.9604 11.4199C24.1159 11.4151 27.4334 13.0085 31.3324 14.9608ZM11.8319 23.9042L14.005 26.0929H24.0764H34.1478L36.5281 23.7136L38.9084 21.3342L38.8665 29.0781L38.8246 36.8219H24H9.17536L9.13346 29.1115C9.09382 21.7931 9.10607 21.4091 9.37517 21.5583C9.53115 21.6448 10.6367 22.7004 11.8319 23.9042Z" fill="#333333"/>
</svg>
