<svg width="49" height="48" viewBox="0 0 49 48" fill="none" xmlns="http://www.w3.org/2000/svg">
<path fill-rule="evenodd" clip-rule="evenodd" d="M6 24.5205V36.0409H16.1598H26.3195L26.2689 34.95L26.218 33.859L17.218 33.8138L8.21801 33.7686V25.2171C8.21801 20.5138 8.25674 16.6656 8.304 16.6656C8.35143 16.6656 11.9023 18.4626 16.195 20.6588L24 24.6521L31.763 20.6684C36.0327 18.4773 39.5837 16.6804 39.654 16.6752C39.7243 16.67 39.7842 19.9449 39.7871 23.9532L39.7921 31.2407L40.8961 31.7888L42 32.3371V22.6685V13H24H6V24.5205ZM36.8815 15.402C36.8815 15.475 33.9826 17.0159 30.4392 18.8264L23.9971 22.1183L17.5577 18.8257C14.0162 17.0149 11.1185 15.4738 11.1185 15.4011C11.1185 15.3285 16.9152 15.2692 24 15.2692C31.0848 15.2692 36.8815 15.3289 36.8815 15.402ZM30.8347 32.128C29.3748 33.6241 28.1801 34.9015 28.1801 34.9666C28.1801 35.0317 29.4073 36.3387 30.9074 37.8711L33.6347 40.6572L34.4067 39.882L35.1789 39.1066L33.7802 37.6681C32.6857 36.5424 32.4424 36.2057 32.6613 36.1198C32.8152 36.0594 34.154 36.0366 35.6364 36.069C37.8305 36.1172 38.4077 36.1832 38.7402 36.4241C40.3135 37.5636 40.0516 39.9438 38.2835 40.5739L37.564 40.8303V41.9267C37.564 43.1616 37.5626 43.1608 38.8552 42.7663C39.905 42.4458 40.8362 41.6708 41.4457 40.61C41.8579 39.8926 41.9147 39.6142 41.9147 38.3101C41.9147 37.0591 41.8499 36.7105 41.5008 36.087C41.273 35.6803 40.8123 35.1533 40.4771 34.916C39.3131 34.0919 38.5143 33.9165 35.4739 33.817C33.902 33.7657 32.6161 33.6772 32.6161 33.6206C32.6161 33.564 33.1993 32.9175 33.9119 32.1842L35.2078 30.8506L34.4956 30.1294C34.1039 29.7326 33.7173 29.4079 33.6364 29.4079C33.5557 29.4079 32.2948 30.6321 30.8347 32.128Z" fill="#333333"/>
</svg>
