<svg width="36" height="36" viewBox="0 0 36 36" fill="none" xmlns="http://www.w3.org/2000/svg">
<path fill-rule="evenodd" clip-rule="evenodd" d="M10.5216 10.5L10.4865 15L8.65107 15.0667C6.86337 15.1316 6.80589 15.1429 6.44552 15.5029L6.07539 15.8725L6.0377 21.3997L6 26.9268L8.24324 26.9635L10.4865 27L10.5243 28.5L10.5621 30H16.5684H22.5748L22.6126 28.5L22.6504 27L24.0686 26.9275C25.3059 26.8643 25.5958 26.8015 26.3424 26.4349C27.9465 25.6472 29.0942 24.096 29.6924 21.9067C30.1002 20.4149 30.103 17.0616 29.6979 15.5808C28.7852 12.2459 26.7583 10.5333 23.724 10.5333H22.5836V8.26667V6H16.5702H10.5569L10.5216 10.5ZM21.0464 11.2667V15L16.535 15.0351L12.0237 15.0703V11.2667V7.46307L16.535 7.49827L21.0464 7.53333V11.2667ZM25.9034 12.4676C26.742 12.9229 27.2645 13.5401 27.786 14.6916C28.3509 15.9387 28.524 16.9265 28.5178 18.8667C28.5078 22.0396 27.5396 24.2395 25.765 25.1216C25.19 25.4075 24.885 25.4667 23.9876 25.4667C23.3233 25.4667 22.8424 25.4048 22.744 25.3067C22.5028 25.0661 22.5285 22.8783 22.7749 22.6743C22.8801 22.5872 23.3161 22.4852 23.744 22.4477C25.447 22.2981 25.5243 22.1344 25.5243 18.6753V16.0043L25.1421 15.5776C24.8097 15.2064 24.645 15.1392 23.8736 15.0596C22.6465 14.9328 22.5836 14.8581 22.5836 13.5265C22.5836 12.0397 22.6747 11.9504 24.114 12.0257C24.9835 12.0712 25.3315 12.1572 25.9034 12.4676ZM24.0237 18.7667L23.9871 21L17.2702 21.0345L10.5533 21.0691V23.2679V25.4667H9.01612H7.47892V21V16.5333H15.7696H24.0604L24.0237 18.7667ZM9.29415 18.2549C8.94407 18.6407 9.06371 19.2317 9.52446 19.3924C10.0311 19.5692 10.3415 19.3557 10.3968 18.7924C10.4675 18.0727 9.76854 17.732 9.29415 18.2549ZM21.0464 25.5333V28.4667L16.535 28.5017L12.0237 28.5369V25.5333V22.5297L16.535 22.5649L21.0464 22.6V25.5333Z" fill="#333333" stroke="#333333" stroke-width="0.2"/>
</svg>
