<svg width="48" height="48" viewBox="0 0 48 48" fill="none" xmlns="http://www.w3.org/2000/svg">
<path fill-rule="evenodd" clip-rule="evenodd" d="M5.12389 8.47881C4.21169 8.76503 3.76112 9.08977 3.45455 9.68296C3.19006 10.1944 3.15885 12.0182 3.20547 24.2785L3.2588 38.2898L3.74078 38.8028C4.00586 39.0848 4.5392 39.4076 4.92596 39.5198C5.3945 39.6559 11.8901 39.7041 24.3946 39.6646C44.6457 39.6006 43.5051 39.6644 44.3452 38.5493C44.7278 38.0417 44.7421 37.6743 44.7944 26.9191C44.8543 14.6362 44.8687 14.7937 43.6163 14.0302C42.9896 13.648 42.6376 13.6314 35.1174 13.6308C26.1996 13.6298 26.3403 13.6521 25.3562 12.0834C24.3093 10.4146 23.3092 9.29303 22.4663 8.84266C21.6398 8.40118 21.5267 8.39506 13.6292 8.35792C9.22917 8.33718 5.40181 8.3917 5.12389 8.47881ZM21.3131 11.1806C21.7823 11.4578 23.7032 13.98 23.7032 14.3188C23.7032 14.5082 22.5595 15.458 21.8565 15.8522C21.2987 16.1651 20.5044 16.1979 13.4842 16.1979H5.72794V13.5313V10.8646H13.2531C19.7969 10.8646 20.8479 10.9059 21.3131 11.1806ZM42.2235 26.6177L42.1724 37.0374L23.9502 37.0878L5.72794 37.1382V27.952V18.7658L13.5798 18.7646C18.3502 18.764 21.7187 18.6838 22.1631 18.5604C22.5655 18.4488 23.3491 17.998 23.9045 17.5591C25.6098 16.2112 25.485 16.2274 34.3223 16.2117L42.2747 16.1979L42.2235 26.6177Z" fill="#333333"/>
</svg>
