<svg width="49" height="48" viewBox="0 0 49 48" fill="none" xmlns="http://www.w3.org/2000/svg">
<path fill-rule="evenodd" clip-rule="evenodd" d="M28.7008 8.11474C28.6373 8.17769 28.5854 8.68085 28.5854 9.23285V10.2362H32.1885C34.1703 10.2362 35.8467 10.2909 35.9139 10.3579C36.0353 10.4786 10.629 35.8669 10.3865 35.8669C10.3168 35.8669 10.2388 34.2221 10.2132 32.2115L10.1665 28.5562H9.12883H8.09114L8.04566 34.2782L8 40L13.6665 39.9548L19.3327 39.9093V38.8205V37.7318L15.8447 37.7517C13.3782 37.7658 12.3204 37.7135 12.2334 37.5733C12.1172 37.3864 37.3188 12.1284 37.6215 12.1284C37.6931 12.1284 37.7517 13.754 37.7517 15.7408V19.3532H38.8758H40V13.6766V8H34.4081C31.3324 8 28.7641 8.05161 28.7008 8.11474Z" fill="#333333"/>
</svg>
