<svg width="49" height="48" viewBox="0 0 49 48" fill="none" xmlns="http://www.w3.org/2000/svg">
<path fill-rule="evenodd" clip-rule="evenodd" d="M13.2559 8.23968C10.3364 9.05203 8.09935 10.9802 6.88357 13.7326C5.62872 16.5731 5.7077 19.216 7.13826 22.2494C7.72406 23.4914 8.14473 23.9526 15.8306 31.7773C20.2727 36.2999 23.969 40 24.0444 40C24.12 40 27.8326 36.2605 32.2947 31.6903C40.0181 23.78 40.4372 23.3179 41.0178 22.0754C41.7349 20.5412 42 19.3707 42 17.7399C42 14.9308 41.1266 12.7897 39.1786 10.8233C37.1038 8.72869 34.7648 7.84098 31.8016 8.02319C29.3463 8.17407 27.4123 9.14878 25.2008 11.35L24.0483 12.4972L22.6352 11.152C20.9194 9.51841 19.6193 8.69458 18.1315 8.29832C16.7794 7.93826 14.4399 7.91007 13.2559 8.23968ZM18.72 11.0105C19.7802 11.5449 20.444 12.0743 22.0528 13.6681L24.0616 15.6582L25.994 13.6863C28.1416 11.4952 29.3413 10.7352 31.2117 10.3816C34.3645 9.78537 37.7757 11.5637 39.1259 14.5072C39.5526 15.4374 39.6728 15.9622 39.7418 17.1961C39.8531 19.1878 39.425 20.7246 38.352 22.1849C37.9391 22.7468 34.5598 26.2999 30.8425 30.0806L24.084 36.9546L16.7591 29.4715C9.91867 22.4831 9.3977 21.9078 8.87894 20.7702C8.3711 19.657 8.32265 19.4022 8.31617 17.8118C8.30764 15.7913 8.5712 14.8974 9.63635 13.3337C10.3752 12.2489 10.9627 11.7282 12.1471 11.1083C13.5082 10.3957 14.2011 10.2429 15.8377 10.2942C17.2512 10.3384 17.5192 10.4051 18.72 11.0105Z" fill="#333333"/>
</svg>
