<svg width="49" height="48" viewBox="0 0 49 48" fill="none" xmlns="http://www.w3.org/2000/svg">
<path fill-rule="evenodd" clip-rule="evenodd" d="M20.4286 7.33386C15.3854 8.43574 10.9658 11.8179 8.74326 16.276C8.21992 17.3256 7.49236 19.5417 7.20401 20.9641C6.932 22.3058 6.932 25.8734 7.20401 27.2149C8.60543 34.1266 13.8407 39.3441 20.7985 40.7632C21.9201 40.9919 22.7914 41.0396 24.6001 40.9714C27.3454 40.8679 29.027 40.4815 31.1537 39.466C37.3968 36.4847 41.004 30.8197 41 24.0027C40.9974 19.3529 39.596 15.7728 36.4333 12.3359C34.0801 9.77897 31.0911 8.10965 27.4679 7.329C25.423 6.88849 22.4573 6.89057 20.4286 7.33386ZM27.4679 9.60481C30.366 10.2926 33.7341 12.4007 35.4631 14.6089C36.4452 15.8629 37.3961 17.4713 37.8262 18.6051C40.5757 25.8534 37.4821 33.8161 30.5965 37.2131C28.248 38.3717 26.4591 38.7919 23.9085 38.7836C21.5134 38.7759 19.8114 38.3912 17.6896 37.3778C15.8335 36.4916 14.8718 35.8212 13.522 34.4728C7.71935 28.676 7.7051 19.3778 13.4902 13.5986C17.2086 9.88384 22.3972 8.40136 27.4679 9.60481ZM22.862 17.1442V18.2728H23.9917H25.1215V17.1442V16.0155H23.9917H22.862V17.1442ZM22.862 26.2599V31.9898H23.9917H25.1215V26.2599V20.53H23.9917H22.862V26.2599Z" fill="#333333"/>
</svg>
