<svg width="48" height="48" viewBox="0 0 48 48" fill="none" xmlns="http://www.w3.org/2000/svg">
<path fill-rule="evenodd" clip-rule="evenodd" d="M22.0721 7.08837C16.4707 7.70869 11.3649 11.2853 8.76876 16.4074C5.94793 21.973 6.54171 28.9906 10.2596 34.0239C11.2879 35.4158 13.2583 37.3067 14.613 38.2015C17.809 40.3124 22.0158 41.3296 25.7924 40.9051C34.5461 39.9212 41 32.7379 41 23.9788C41 17.3787 37.3538 11.5717 31.4089 8.70385C28.6558 7.37576 25.074 6.75597 22.0721 7.08837ZM25.4468 9.16701C29.1666 9.55496 32.2463 11.0869 34.8893 13.8644C41.2357 20.5334 39.9341 31.3484 32.171 36.4506C29.3997 38.2719 26.9641 38.9196 23.3763 38.7894C20.1731 38.6729 18.1869 38.0463 15.6828 36.3613C11.3929 33.4746 8.81974 28.4166 9.0857 23.3937C9.37136 17.9984 12.2679 13.3947 16.991 10.8289C18.7142 9.89272 20.7981 9.32347 23.6323 9.01469C23.7273 9.00434 24.5438 9.07282 25.4468 9.16701ZM22.8107 15.0334C20.4974 15.6087 18.6687 17.5516 18.4131 19.7056L18.3112 20.5652L19.4099 20.5131C20.4763 20.4627 20.5119 20.4458 20.6158 19.9437C20.8757 18.6885 21.7579 17.7122 23.01 17.2937C24.1339 16.9182 25.3039 17.1762 26.2549 18.0098C27.0439 18.7013 27.3477 19.4224 27.3477 20.604C27.3477 21.7532 26.9745 22.3564 25.1409 24.1699C23.5566 25.7369 22.9852 26.8399 22.885 28.5256L22.8155 29.69H23.9584H25.1012V28.8206C25.1012 27.6115 25.5062 26.9263 27.2918 25.1156C29.1765 23.2043 29.4766 22.6309 29.5629 20.7794C29.6208 19.5372 29.5732 19.25 29.1569 18.324C28.6172 17.1233 27.3837 15.8657 26.262 15.3726C25.3716 14.981 23.6872 14.8156 22.8107 15.0334ZM22.9699 32.0475C22.9064 32.1107 22.8546 32.6152 22.8546 33.1688V34.175H23.9779H25.1012V33.0537V31.9325H24.0932C23.5386 31.9325 23.0331 31.9842 22.9699 32.0475Z" fill="#333333"/>
</svg>
