<svg width="49" height="48" viewBox="0 0 49 48" fill="none" xmlns="http://www.w3.org/2000/svg">
<path fill-rule="evenodd" clip-rule="evenodd" d="M22.9476 7.09457C22.9464 7.16962 22.9475 12.3229 22.9501 18.5465C22.9532 25.9269 22.8941 29.8987 22.7801 29.9678C22.684 30.0259 21.0705 28.5694 19.1945 26.7308C17.3188 24.8921 15.6859 23.3879 15.5661 23.3879C15.4463 23.3879 15.04 23.6974 14.6634 24.0758L13.9784 24.7634L18.9874 29.6748L23.9963 34.586L29.0053 29.6748L34.0142 24.7634L33.3293 24.0758C32.9526 23.6974 32.5615 23.3879 32.4602 23.3879C32.3589 23.3879 30.7072 24.9274 28.7901 26.8091L25.3042 30.2301L25.217 18.6451L25.1298 7.06003L24.0399 7.00908C23.4406 6.98121 22.949 7.01968 22.9476 7.09457ZM9 37.5797V41L23.9527 40.9564L38.9055 40.9126L38.9527 37.5359L39 34.1592H37.8629H36.7258V36.3636C36.7258 38.2159 36.6817 38.5845 36.4499 38.6717C36.0895 38.8073 11.9032 38.8073 11.5428 38.6717C11.311 38.5845 11.2669 38.2159 11.2669 36.3636V34.1592H10.1334H9V37.5797Z" fill="#333333"/>
</svg>
