<svg width="48" height="48" viewBox="0 0 48 48" fill="none" xmlns="http://www.w3.org/2000/svg">
<path fill-rule="evenodd" clip-rule="evenodd" d="M28.8456 9.20444C28.6689 9.30218 25.9222 11.9876 22.7417 15.172C18.5845 19.3346 16.7542 21.0595 16.2306 21.3085C15.0545 21.8677 13.9469 21.9939 10.3732 21.9759L7 21.9591V29.3869V36.8149L11.8992 36.9045C17.2406 37.0022 16.7493 36.9282 20.2923 38.1693C21.0652 38.4401 22.2452 38.7385 22.9141 38.8324C24.5181 39.0575 33.6324 39.0552 34.438 38.8294C34.775 38.7351 35.3274 38.3787 35.6653 38.0376C36.2431 37.4546 36.4211 36.9893 38.64 30.2571L41 23.0968L40.8026 22.2567C40.5578 21.2148 39.5956 20.163 38.6436 19.8964C38.2568 19.7879 36.4852 19.7161 34.1866 19.7156C30.5268 19.7147 30.3716 19.702 30.3716 19.4022C30.3716 19.1106 30.7166 18.1004 31.7146 15.4699C32.1687 14.2734 32.5043 12.0619 32.3559 11.2441C32.0692 9.66347 30.0924 8.51493 28.8456 9.20444ZM30.1222 12.5867C30.1148 13.8017 30.0433 14.1293 29.5049 15.4194C28.695 17.3594 28.3189 18.8716 28.2555 20.4441L28.2031 21.7408L33.1826 21.8218C35.9214 21.8664 38.2569 21.9646 38.3729 22.0401C39.0307 22.4688 38.9677 22.7535 36.6866 29.6511C35.475 33.3149 34.3536 36.4437 34.1946 36.6041C33.9288 36.8724 33.5135 36.8956 29.0464 36.8927C23.6024 36.8891 22.6813 36.799 20.6381 36.0694C17.4544 34.9329 17.2719 34.9024 13.0236 34.8014L9.08819 34.7077L9.04578 29.3994C9.01237 25.2068 9.0461 24.0913 9.20641 24.093C9.31805 24.0939 10.6383 24.0657 12.1401 24.0302C15.2001 23.9578 16.2913 23.7378 17.6281 22.9237C18.1307 22.6175 20.6635 20.191 24.0532 16.7682C27.2797 13.5103 29.7508 11.1381 29.8897 11.1654C30.0822 11.2031 30.1289 11.4899 30.1222 12.5867Z" fill="#333333"/>
</svg>
