<svg width="48" height="48" viewBox="0 0 48 48" fill="none" xmlns="http://www.w3.org/2000/svg">
<path fill-rule="evenodd" clip-rule="evenodd" d="M13.1285 9.87186C11.1953 10.1135 9.58304 10.9608 8.26346 12.4286C6.79954 14.0567 6.25916 15.6911 6.3953 18.079C6.46638 19.3247 6.57342 19.7542 7.07784 20.8162C8.36414 23.5248 11.1135 25.2436 14.1738 25.2521L15.0519 25.2546V24.1896V23.1244L13.8393 23.0443C12.1593 22.933 11.0779 22.429 9.98343 21.2469C7.40748 18.4645 8.33186 13.9826 11.7976 12.45C12.7169 12.0434 12.7392 12.0421 18.4585 12.0421H24.1971L25.2203 12.5535C29.3913 14.6377 29.4365 20.4059 25.2979 22.4433C24.4177 22.8767 23.9205 23.007 22.9608 23.0555L21.7418 23.117V24.1857V25.2546H22.7101C25.6684 25.2546 28.57 23.4304 29.8126 20.7894C30.2898 19.7753 30.3548 19.4556 30.412 17.844C30.4676 16.2833 30.4247 15.8949 30.0988 15.0012C29.8912 14.4317 29.5433 13.6841 29.3259 13.3396C28.1977 11.5524 25.946 10.152 23.7487 9.8712C22.2982 9.68589 14.6125 9.68622 13.1285 9.87186ZM24.0832 16.5059C22.0923 16.8382 20.0791 17.9748 19.0268 19.3603C17.0247 21.9966 16.8349 25.5784 18.5565 28.2281C19.9131 30.3157 21.815 31.4985 24.2684 31.7806C25.9532 31.9743 30.1041 31.9979 30.1041 31.8139C30.1041 31.742 29.6713 31.2606 29.1425 30.744L28.1808 29.8051L25.9743 29.7317C23.9038 29.6629 23.7007 29.6253 22.68 29.1229C21.3601 28.4731 20.3834 27.4196 19.8913 26.1154C19.3735 24.7428 19.4841 22.8339 20.1522 21.6059C21.0999 19.8649 22.8795 18.7495 24.9455 18.6017L26.0902 18.5197V17.4552V16.3905L25.2958 16.4132C24.8587 16.4258 24.3132 16.4674 24.0832 16.5059ZM32.8916 16.5021C32.8303 16.5633 32.7801 17.0426 32.7801 17.5671V18.5207L34.0018 18.5992C36.7437 18.7751 38.9169 20.6581 39.3894 23.2677C39.4675 23.6985 39.7618 24.1325 40.4104 24.7729C41.4691 25.8182 41.6375 25.746 41.6417 24.2444C41.6494 21.4313 39.8923 18.5413 37.4088 17.2829C36.1294 16.6345 33.2557 16.1378 32.8916 16.5021ZM31.4421 28.3487L30.6992 29.1056L32.6117 31.0235L34.5241 32.9415L32.6486 34.8424C31.617 35.8879 30.7731 36.8149 30.7731 36.9024C30.7731 37.1064 31.991 38.2999 32.1992 38.2999C32.2859 38.2999 33.2046 37.4545 34.2408 36.4211L36.125 34.5424L38.0092 36.4211C39.0455 37.4545 39.9709 38.2999 40.0659 38.2999C40.1607 38.2999 40.5335 37.9977 40.8941 37.6282L41.5499 36.9567L39.6737 35.0752C38.6418 34.0403 37.7975 33.1208 37.7975 33.0316C37.7975 32.9425 38.6431 32.0216 39.6765 30.9852L41.5557 29.1008L40.7708 28.3161L39.9861 27.5312L38.0885 29.4033C37.0449 30.4331 36.1208 31.2755 36.0352 31.2755C35.9496 31.2755 35.0481 30.4466 34.0323 29.4336L32.185 27.5917L31.4421 28.3487Z" fill="#333333"/>
</svg>
