<svg width="36" height="36" viewBox="0 0 36 36" fill="none" xmlns="http://www.w3.org/2000/svg">
<path fill-rule="evenodd" clip-rule="evenodd" d="M16.1176 5.03381C14.4092 5.34215 12.6391 6.21945 11.4424 7.35106C9.57649 9.11546 8.52423 11.8747 9.21134 14.2969C10.0724 17.3324 17.2949 30 17.4706 30C17.6463 30 24.8063 17.5964 25.7299 14.2969C26.5646 11.3148 25.3642 9.11504 23.5075 7.35932C21.9374 5.87457 20.067 5.10071 17.8464 5.01701C17.1023 4.98888 16.3243 4.99644 16.1176 5.03381ZM20.3269 6.92389C21.6404 7.50978 22.658 8.30492 23.3157 9.25934C24.2401 10.6005 24.6867 12.43 24.3984 13.6941C23.8237 16.2136 17.6605 26.9208 17.4706 26.9208C17.2807 26.9208 11.1174 16.2136 10.5428 13.6941C10.1288 11.8786 11.1145 9.38447 12.7898 8.00875C14.2628 6.79932 15.6601 6.33688 17.6961 6.3853C19.0716 6.41792 19.2953 6.46368 20.3269 6.92389ZM16.3783 8.30968C14.9059 8.65385 13.637 9.63976 12.9871 10.9441C12.4128 12.0967 12.419 13.6565 13.002 14.7637C13.4632 15.6396 14.393 16.5138 15.3886 17.0079C15.9404 17.2818 16.2654 17.3324 17.4706 17.3324C18.6758 17.3324 19.0008 17.2818 19.5525 17.0079C20.5487 16.5137 21.4782 15.6393 21.938 14.7643C22.2851 14.1037 22.3526 13.7932 22.3532 12.855C22.354 11.5783 22.0404 10.7735 21.147 9.75817C20.1453 8.62026 17.9293 7.94703 16.3783 8.30968ZM18.7245 9.77483C20.6504 10.5241 21.4546 12.4959 20.562 14.2806C19.6676 16.0695 17.142 16.6254 15.3625 15.4252C14.1519 14.6088 13.6537 12.7505 14.298 11.4547C15.0513 9.93985 17.1253 9.15269 18.7245 9.77483Z" fill="#333333" stroke="#333333" stroke-width="0.2"/>
</svg>
