<svg width="48" height="48" viewBox="0 0 48 48" fill="none" xmlns="http://www.w3.org/2000/svg">
<path fill-rule="evenodd" clip-rule="evenodd" d="M22.0633 5.18972C18.6768 5.88298 15.9586 8.54003 15.0925 12.0034C14.5296 14.2546 14.9577 21.6405 14.9577 21.6405C15.2009 21.6405 17 21.6314 17 21.6314C17 15.1454 16.9546 14.1739 17 13.5C17 12.6739 17.6564 11.2419 18.2474 10.3634C18.9325 9.34511 19.879 8.56794 21.2118 7.92925C22.1279 7.49043 22.4401 7.43713 24.088 7.43857C25.708 7.44001 26.0564 7.49781 26.9051 7.9062C28.3384 8.59603 29.6093 9.85956 30.2889 11.2706L30.8665 12.4696L30.919 17.0195L30.9715 21.5693L20.5312 21.6157L10.0908 21.6622L10.0454 32.3311L10 43H24H38L37.9546 32.3311L37.9092 21.6622L35.6203 21.5721L33.3315 21.4821L33.2394 16.8004C33.1355 11.5257 33.0591 11.155 31.622 8.95401C29.6818 5.98255 25.7513 4.43471 22.0633 5.18972ZM35.6661 32.3311L35.7119 40.6591H24.0898H12.4677V32.4062C12.4677 27.8669 12.5211 24.0985 12.5864 24.0317C12.6515 23.965 17.861 23.9312 24.1627 23.9568L35.6203 24.003L35.6661 32.3311Z" fill="#333333"/>
</svg>
