<svg width="48" height="48" viewBox="0 0 48 48" fill="none" xmlns="http://www.w3.org/2000/svg">
<path d="M24.0004 9.60039C23.1167 9.60039 22.4004 8.88405 22.4004 8.00039C22.4004 7.11673 23.1167 6.40039 24.0004 6.40039C24.884 6.40039 25.6004 7.11673 25.6004 8.00039C25.6004 8.88405 24.884 9.60039 24.0004 9.60039Z" fill="#333333"/>
<path d="M24.0004 25.6004C23.1167 25.6004 22.4004 24.884 22.4004 24.0004C22.4004 23.1167 23.1167 22.4004 24.0004 22.4004C24.884 22.4004 25.6004 23.1167 25.6004 24.0004C25.6004 24.884 24.884 25.6004 24.0004 25.6004Z" fill="#333333"/>
<path d="M24.0004 41.6004C23.1167 41.6004 22.4004 40.884 22.4004 40.0004C22.4004 39.1167 23.1167 38.4004 24.0004 38.4004C24.884 38.4004 25.6004 39.1167 25.6004 40.0004C25.6004 40.884 24.884 41.6004 24.0004 41.6004Z" fill="#333333"/>
<path d="M24.0004 9.60039C23.1167 9.60039 22.4004 8.88405 22.4004 8.00039C22.4004 7.11673 23.1167 6.40039 24.0004 6.40039C24.884 6.40039 25.6004 7.11673 25.6004 8.00039C25.6004 8.88405 24.884 9.60039 24.0004 9.60039Z" stroke="#333333" stroke-width="2"/>
<path d="M24.0004 25.6004C23.1167 25.6004 22.4004 24.884 22.4004 24.0004C22.4004 23.1167 23.1167 22.4004 24.0004 22.4004C24.884 22.4004 25.6004 23.1167 25.6004 24.0004C25.6004 24.884 24.884 25.6004 24.0004 25.6004Z" stroke="#333333" stroke-width="2"/>
<path d="M24.0004 41.6004C23.1167 41.6004 22.4004 40.884 22.4004 40.0004C22.4004 39.1167 23.1167 38.4004 24.0004 38.4004C24.884 38.4004 25.6004 39.1167 25.6004 40.0004C25.6004 40.884 24.884 41.6004 24.0004 41.6004Z" stroke="#333333" stroke-width="2"/>
</svg>
