<svg width="48" height="48" viewBox="0 0 48 48" fill="none" xmlns="http://www.w3.org/2000/svg">
<path d="M9.60039 24.0004C9.60039 24.884 8.88405 25.6004 8.00039 25.6004C7.11673 25.6004 6.40039 24.884 6.40039 24.0004C6.40039 23.1167 7.11673 22.4004 8.00039 22.4004C8.88405 22.4004 9.60039 23.1167 9.60039 24.0004Z" fill="#333333"/>
<path d="M25.6004 24.0004C25.6004 24.884 24.884 25.6004 24.0004 25.6004C23.1167 25.6004 22.4004 24.884 22.4004 24.0004C22.4004 23.1167 23.1167 22.4004 24.0004 22.4004C24.884 22.4004 25.6004 23.1167 25.6004 24.0004Z" fill="#333333"/>
<path d="M41.6004 24.0004C41.6004 24.884 40.884 25.6004 40.0004 25.6004C39.1167 25.6004 38.4004 24.884 38.4004 24.0004C38.4004 23.1167 39.1167 22.4004 40.0004 22.4004C40.884 22.4004 41.6004 23.1167 41.6004 24.0004Z" fill="#333333"/>
<path d="M9.60039 24.0004C9.60039 24.884 8.88405 25.6004 8.00039 25.6004C7.11673 25.6004 6.40039 24.884 6.40039 24.0004C6.40039 23.1167 7.11673 22.4004 8.00039 22.4004C8.88405 22.4004 9.60039 23.1167 9.60039 24.0004Z" stroke="#333333" stroke-width="2"/>
<path d="M25.6004 24.0004C25.6004 24.884 24.884 25.6004 24.0004 25.6004C23.1167 25.6004 22.4004 24.884 22.4004 24.0004C22.4004 23.1167 23.1167 22.4004 24.0004 22.4004C24.884 22.4004 25.6004 23.1167 25.6004 24.0004Z" stroke="#333333" stroke-width="2"/>
<path d="M41.6004 24.0004C41.6004 24.884 40.884 25.6004 40.0004 25.6004C39.1167 25.6004 38.4004 24.884 38.4004 24.0004C38.4004 23.1167 39.1167 22.4004 40.0004 22.4004C40.884 22.4004 41.6004 23.1167 41.6004 24.0004Z" stroke="#333333" stroke-width="2"/>
</svg>
