<svg width="48" height="48" viewBox="0 0 48 48" fill="none" xmlns="http://www.w3.org/2000/svg">
<path fill-rule="evenodd" clip-rule="evenodd" d="M21.2192 4.68249C16.9234 5.36385 13.2989 7.2033 10.2898 10.2295C4.95692 15.5925 3.1905 23.4333 5.72115 30.5088C7.96757 36.7896 13.3186 41.5794 19.6687 42.9934C20.299 43.1339 20.9733 43.2499 21.167 43.2516C21.5009 43.2544 21.5237 43.2101 21.6024 42.4071C21.6481 41.9411 21.7242 41.2776 21.7713 40.9328C21.8545 40.3248 21.8396 40.2895 21.2686 39.7567C20.0359 38.6063 18.5982 35.7836 17.8538 33.0527C17.3281 31.1238 16.979 31.3224 20.8971 31.3224H24.283L24.1848 30.8139C24.1309 30.5343 24.0482 30.0003 24.0013 29.6274L23.9158 28.9495L20.483 28.8817L17.0502 28.8139L16.9301 28.3393C16.7736 27.7211 16.7736 20.2791 16.9302 19.6613L17.0505 19.1868L28.6676 19.1521L40.2848 19.1175L40.4241 19.6247C40.5007 19.9036 40.6376 20.6209 40.7284 21.2186C40.8717 22.1614 40.9744 22.4177 41.5042 23.1529C42.106 23.9878 42.1244 24.0003 42.7569 24.0003H43.399V23.3462C43.399 22.3884 43.0438 20.1701 42.6787 18.8478C40.8631 12.2719 35.6458 7.02514 29.1069 5.19924C26.6059 4.5008 23.6047 4.30432 21.2192 4.68249ZM25.4382 7.26581C26.4865 7.79124 27.6101 9.10975 28.4994 10.8584C29.2549 12.3436 30.2319 15.0407 30.3989 16.102L30.4897 16.6783H23.9833H17.4768L17.5676 16.102C17.7346 15.0407 18.7116 12.3436 19.4671 10.8584C20.7842 8.26852 22.3341 6.91558 23.9833 6.91558C24.526 6.91558 24.9365 7.01442 25.4382 7.26581ZM18.1855 8.19571C18.1855 8.30324 18.1174 8.43341 18.0342 8.48507C17.796 8.63313 16.3554 11.751 15.9716 12.9495C15.7804 13.5461 15.4802 14.6139 15.3046 15.3224L14.985 16.6105L11.8661 16.6468C9.71378 16.6721 8.7473 16.6383 8.7473 16.5378C8.7473 16.2763 9.57382 14.8689 10.3371 13.8308C11.91 11.6914 13.9612 9.95747 16.3526 8.74554C17.8979 7.96236 18.1855 7.87612 18.1855 8.19571ZM31.1939 8.54134C34.302 10.0331 36.9535 12.4853 38.6883 15.4723C38.9803 15.9751 39.2192 16.4533 39.2192 16.535C39.2192 16.6391 38.2909 16.6725 36.1023 16.6468L32.9854 16.6105L32.5302 14.8197C31.9215 12.4249 31.0925 10.3663 30.1016 8.78771C29.5008 7.83069 29.6454 7.79802 31.1939 8.54134ZM14.4586 20.2376C14.3233 21.6811 14.3233 26.3195 14.4586 27.763L14.5635 28.8817H11.1213H7.67904L7.54393 28.3732C7.13337 26.8292 7.06717 26.2213 7.06717 24.0003C7.06717 21.7793 7.13337 21.1714 7.54393 19.6274L7.67904 19.119H11.1213H14.5635L14.4586 20.2376ZM15.0683 31.8308C15.1394 32.1106 15.3268 32.8529 15.4848 33.4809C15.9561 35.3527 16.9608 37.7728 17.8649 39.2129C18.4897 40.2083 18.3282 40.2201 16.4826 39.3138C14.3388 38.2608 12.1544 36.5298 10.7838 34.7977C9.96578 33.7638 8.7473 31.8076 8.7473 31.5282C8.7473 31.3502 9.16528 31.3224 11.8432 31.3224H14.9392L15.0683 31.8308Z" fill="#243A4A"/>
<path fill-rule="evenodd" clip-rule="evenodd" d="M32.2746 21.709C29.0062 22.448 26.6683 25.1634 26.4489 28.4751C26.3192 30.4339 27.0834 32.4916 28.476 33.9327C28.908 34.3799 29.2113 34.7887 29.1501 34.8412C29.0888 34.8937 28.632 35.2227 28.1348 35.5726C26.072 37.0241 24.6593 39.2232 24.1836 41.7231C24.073 42.3045 23.9824 42.948 23.9824 43.1531V43.5259H25.1959H26.4094L26.4114 43.0853C26.4148 42.3235 26.8038 40.9392 27.2555 40.0809C27.8124 39.0226 29.2123 37.6149 30.2646 37.0547C33.1213 35.5342 36.5882 36.0884 38.8813 38.4321C40.1139 39.6919 40.9624 41.583 40.9692 43.0853L40.9712 43.5259H42.1847H43.3982V43.1531C43.3982 42.6717 43.0514 40.8489 42.8673 40.3619C42.0128 38.1015 40.8082 36.6561 38.3436 34.9335C38.0857 34.7533 38.1002 34.7216 38.7297 34.0976C39.5653 33.2691 40.2008 32.2676 40.5864 31.1716C40.8287 30.4828 40.8911 30.0142 40.8911 28.8819C40.8911 27.2619 40.6096 26.2355 39.8355 25.0328C38.1954 22.4848 35.0192 21.0885 32.2746 21.709ZM35.7875 24.4728C36.7918 24.9669 37.5845 25.7661 38.0832 26.7875C38.4342 27.5065 38.4768 27.733 38.4768 28.8819C38.4768 30.0291 38.4339 30.2577 38.0853 30.9719C37.6079 31.9495 36.7183 32.833 35.719 33.322C35.067 33.6409 34.807 33.6878 33.6903 33.6878C32.572 33.6878 32.3139 33.641 31.6577 33.3201C28.8726 31.9578 28.0005 28.5678 29.7699 25.9817C30.2627 25.2614 31.1865 24.5813 32.1397 24.2368C33.1678 23.8655 34.7629 23.9686 35.7875 24.4728Z" fill="#1760A9"/>
</svg>
