<svg width="48" height="48" viewBox="0 0 48 48" fill="none" xmlns="http://www.w3.org/2000/svg">
<path fill-rule="evenodd" clip-rule="evenodd" d="M5.57303 8.49059C5.2155 8.57533 4.73649 8.81079 4.50874 9.01365C3.55111 9.86679 3.55644 9.78145 3.55684 24.043C3.55703 38.8317 3.50864 38.2445 4.80543 39.1958C5.35832 39.6011 5.49995 39.6049 20.6122 39.6049C35.7125 39.6049 35.8668 39.6009 36.4216 39.1966C36.8092 38.9143 38.1313 36.6304 40.7098 31.7892C44.7414 24.2198 44.8522 23.9148 44.0463 22.6107C43.5418 21.7945 43.2793 21.6809 41.5811 21.5436L40.1984 21.432L40.0996 18.2423C39.9501 13.4142 40.3418 13.6296 31.7081 13.6296C26.5656 13.6296 25.1359 13.5727 24.5943 13.3463C24.1125 13.145 23.6637 12.6692 23.0437 11.7018C22.5638 10.9532 21.8275 10.0128 21.4071 9.61217C20.1135 8.37898 19.5238 8.29345 12.4588 8.31637C9.02923 8.32763 5.93056 8.40605 5.57303 8.49059ZM19.5272 11.3637C19.8537 11.6384 20.4728 12.4161 20.903 13.0921C21.8462 14.5739 22.5548 15.2687 23.6058 15.7425C24.3063 16.0582 25.1428 16.1056 30.9696 16.1601L37.543 16.2217L37.4881 18.8268L37.433 21.432L24.9797 21.5308C13.6329 21.6209 12.4803 21.6598 12.0076 21.9695C11.6439 22.2079 10.7416 23.8014 8.98814 27.3028C7.61274 30.0493 6.40582 32.3258 6.30587 32.362C6.10518 32.4349 6.04474 11.6963 6.24424 11.1766C6.35012 10.9007 7.10014 10.8641 12.6488 10.8641H18.9336L19.5272 11.3637ZM40.5058 26.716C39.7482 28.1554 38.2016 31.0666 37.0689 33.1851L35.0095 37.037L21.0606 37.0877C13.3889 37.1156 7.112 37.0826 7.112 37.0144C7.112 36.9465 8.55318 34.0126 10.3146 30.4947L13.5173 24.0987H27.7002H41.8832L40.5058 26.716Z" fill="#333333"/>
</svg>
