<svg width="36" height="36" viewBox="0 0 36 36" fill="none" xmlns="http://www.w3.org/2000/svg">
<path fill-rule="evenodd" clip-rule="evenodd" d="M10.8749 5.24625C9.96591 5.71484 10.0002 5.21381 10.0002 17.9968C10.0002 30.8303 9.96197 30.2906 10.9059 30.7543C11.5727 31.0819 25.4273 31.0819 26.0941 30.7543C27.038 30.2906 26.9998 30.8303 26.9998 17.9968C26.9998 5.16335 27.038 5.70301 26.0941 5.23933C25.4357 4.91593 11.5035 4.92228 10.8749 5.24625ZM25.3302 17.9968V29.3871H18.5H11.6698V17.9968V6.60659H18.5H25.3302V17.9968ZM16.8304 26.8639V27.6569H18.5H20.1696V26.8639V26.0709H18.5H16.8304V26.8639Z" fill="black"/>
</svg>
