<svg width="36" height="36" viewBox="0 0 36 36" fill="none" xmlns="http://www.w3.org/2000/svg">
<path fill-rule="evenodd" clip-rule="evenodd" d="M29.1052 10.239C28.852 9.36308 26.6351 7.39581 25.4202 6.96912C24.5766 6.67282 22.352 6.67797 21.2266 6.97878C15.6952 8.45775 9.90862 13.7118 7.59014 19.3602C6.92683 20.9762 6.75924 21.7924 6.75135 23.4454C6.7442 24.942 6.74897 24.9676 7.20609 25.8925C7.49463 26.4766 7.99839 27.1859 8.54865 27.7832C9.76235 29.1007 10.5712 29.4511 11.6997 29.1484C12.1603 29.0249 12.5332 28.7289 13.8097 27.4735C15.4567 25.854 15.8242 25.2957 15.8287 24.4064C15.8325 23.6722 15.5045 23.0889 14.528 22.0934C13.8024 21.3537 13.7006 21.1914 13.7006 20.7748C13.7006 20.3206 13.8459 20.1543 16.9918 17.0063C20.1326 13.8632 20.3045 13.7129 20.7557 13.7129C21.1697 13.7129 21.3333 13.8159 22.0709 14.5413C23.0653 15.5189 23.6479 15.8473 24.3811 15.8436C25.2696 15.839 25.8269 15.4712 27.4438 13.8221C29.2329 11.9974 29.4673 11.4919 29.1052 10.239ZM27.5098 11.7803C27.3148 12.0494 26.6307 12.7639 25.9896 13.3678C24.4611 14.8075 24.3184 14.819 23.0566 13.6028C22.5643 13.1281 21.9808 12.6481 21.7602 12.5361C21.2148 12.2593 20.2832 12.2786 19.6627 12.5798C18.9598 12.9209 12.778 19.1353 12.5161 19.7641C12.2642 20.3691 12.2683 21.2749 12.5253 21.7823C12.6371 22.0032 13.1165 22.5873 13.5907 23.0803C14.8054 24.3435 14.7939 24.4865 13.3559 26.0168C12.1 27.3533 11.4139 27.8939 10.9735 27.8939C10.5307 27.8939 8.89848 26.2757 8.48234 25.4242C7.08476 22.5641 9.40411 17.1312 13.8157 12.9314C15.963 10.8872 18.4045 9.3371 20.7131 8.55237C21.7791 8.18994 22.0688 8.14439 23.3521 8.13673C24.7152 8.12883 24.8291 8.14803 25.4476 8.49126C26.3161 8.97304 27.8644 10.5692 27.8644 10.9825C27.8644 11.152 27.7049 11.5111 27.5098 11.7803Z" fill="#333333" stroke="#333333" stroke-width="0.3"/>
</svg>
