<svg width="49" height="48" viewBox="0 0 49 48" fill="none" xmlns="http://www.w3.org/2000/svg">
<path fill-rule="evenodd" clip-rule="evenodd" d="M28.2806 7.79317C27.0974 9.17229 26.4857 10.9493 26.7099 12.356L26.8125 13.0005L23.5432 16.2784C21.1748 18.6531 20.1995 19.5278 20.0038 19.4524C19.8554 19.3953 19.2393 19.2781 18.6349 19.1923C16.0211 18.8206 13.105 19.8637 11.2282 21.8416L10.7448 22.3511L14.0156 25.633C15.8145 27.4381 17.2863 28.9628 17.2863 29.0213C17.2863 29.0797 15.1146 31.3056 12.4605 33.9676C7.7725 38.6696 7.62456 38.838 7.28458 39.8635C7.09204 40.4439 6.9674 40.9519 7.00751 40.9921C7.04761 41.0325 7.52338 40.9133 8.06472 40.7273C8.9938 40.408 9.3243 40.113 13.9659 35.4601L18.8827 30.5311L22.1402 33.7941C23.9318 35.5887 25.4734 37.057 25.5661 37.057C26.0847 37.057 27.8551 34.5409 28.3737 33.0673C28.8032 31.8463 28.9007 29.7351 28.59 28.3827L28.4194 27.64L31.6367 24.4119L34.8537 21.1836L36.2687 21.1373C37.9686 21.0815 38.8523 20.7107 40.136 19.5141L41 18.7085L35.1764 12.8543C31.9735 9.6345 29.2648 7 29.157 7C29.0493 7 28.6549 7.35701 28.2806 7.79317ZM33.6792 14.3514C38.0978 18.7909 38.046 18.7142 36.7878 18.9573C36.2032 19.0702 35.0398 18.9737 34.5475 18.7713C34.3149 18.6758 33.371 19.5294 30.0904 22.8023C25.5465 27.3356 25.7696 26.9998 26.3328 28.4574C26.8613 29.8256 26.5586 32.6296 25.7803 33.5756L25.4574 33.9678L19.7036 28.2069C13.9875 22.4839 13.952 22.444 14.3065 22.1526C15.3897 21.262 18.1398 21.0329 19.8454 21.691L20.8235 22.0684L24.9885 17.8891L29.1536 13.7097L28.9649 12.7669C28.7564 11.7256 28.9717 10.1727 29.3245 10.1727C29.432 10.1727 31.3917 12.0531 33.6792 14.3514Z" fill="#333333"/>
</svg>
