<svg width="48" height="48" viewBox="0 0 48 48" fill="none" xmlns="http://www.w3.org/2000/svg">
<path fill-rule="evenodd" clip-rule="evenodd" d="M22.779 13.2708V23.9996H24.0502H25.3214L25.2671 13.2708L25.2128 2.54199H23.9959H22.779V13.2708ZM16.6159 9.44362C11.0626 11.7273 6.74642 17.0878 5.58831 23.1399C4.27543 30.0002 6.81801 36.9499 12.2428 41.329C23.3329 50.2817 40.0125 44.0431 42.4975 30.013C42.8087 28.2562 42.759 24.6614 42.3998 22.945C41.1864 17.1458 37.2913 12.1727 32.0695 9.75582C29.8759 8.7405 29.8326 8.74579 29.414 10.0735C29.2149 10.705 29.0821 11.2495 29.1189 11.2837C29.1557 11.3177 29.7933 11.6195 30.5357 11.9545C36.4011 14.6006 40.1731 20.4035 40.1501 26.7454C40.1265 33.3051 36.0927 39.2724 30.0506 41.6854C25.4817 43.5102 20.9072 43.2562 16.3802 40.9267C14.9054 40.1679 14.1797 39.6171 12.7112 38.1427C9.41936 34.8374 7.88438 31.2295 7.86221 26.7454C7.85001 24.2506 8.37048 22.0719 9.56316 19.6267C11.1846 16.3021 13.7286 13.7756 17.0841 12.1581C18.035 11.6996 18.843 11.3014 18.8798 11.2731C19.035 11.1539 18.2111 8.94918 18.013 8.95365C17.8936 8.9563 17.2649 9.17677 16.6159 9.44362Z" fill="#333333"/>
</svg>
