<svg width="48" height="48" viewBox="0 0 48 48" fill="none" xmlns="http://www.w3.org/2000/svg">
<path fill-rule="evenodd" clip-rule="evenodd" d="M11.2698 7.14556C11.2317 7.24477 11.2228 7.71585 11.2501 8.19242L11.2996 9.05906L13.4374 9.13958L15.575 9.22011L14.8088 9.69217C11.611 11.6622 9.03906 15.0247 7.77834 18.8834C6.44227 22.9727 6.84385 27.818 8.84771 31.7864C11.7435 37.5213 18.2145 41.2963 24.6103 40.9817C32.5679 40.5904 38.8292 35.3688 40.6802 27.5805C41.1592 25.5652 41.0914 21.9699 40.5354 19.8857C40.0859 18.2004 39.0101 15.7723 38.1521 14.5063C36.7778 12.4783 34.7121 10.5474 32.5899 9.30708C31.489 8.66367 29.1849 7.69008 28.7632 7.69008C28.6456 7.69008 28.4666 7.99802 28.3655 8.37457C28.2643 8.75112 28.1356 9.1784 28.0793 9.32415C27.9975 9.53562 28.1832 9.65786 28.996 9.92795C30.6786 10.4871 32.6187 11.6854 34.0921 13.0755C36.2651 15.1257 37.576 17.2325 38.4285 20.045C38.8086 21.2991 38.8583 21.7354 38.8647 23.8762C38.8707 25.8789 38.8109 26.5188 38.5148 27.6175C37.0619 33.0103 33.0319 37.0328 27.6322 38.4804C25.7271 38.9911 22.1771 38.9909 20.3644 38.4801C17.4361 37.655 15.276 36.3697 13.2142 34.2259C11.2038 32.1356 9.87013 29.6057 9.35126 26.8984C9.0468 25.3101 9.05907 22.4748 9.37707 20.9301C10.0537 17.6433 12.1307 14.3062 14.7534 12.2916C15.7557 11.5219 17.2704 10.5891 17.5183 10.5891C17.6097 10.5891 17.6726 11.5759 17.6726 13.0049V15.4208H18.7213H19.77V11.2385V7.05633L15.5545 7.01075C12.5555 6.97854 11.319 7.01736 11.2698 7.14556Z" fill="#333333"/>
</svg>
