<svg width="49" height="48" viewBox="0 0 49 48" fill="none" xmlns="http://www.w3.org/2000/svg">
<path fill-rule="evenodd" clip-rule="evenodd" d="M6.11727 8.12482C6.05275 8.19331 6 14.3407 6 21.7856V35.3216H18.5107H31.0212L31.6093 34.8443C32.3252 34.263 32.3398 34.04 31.7041 33.3917C31.2591 32.9379 31.0832 32.8889 29.9 32.8889H28.5891L25.6449 29.7514L22.701 26.6137L24.1971 25.0296L25.6929 23.4457L27.8024 25.685L29.9119 27.9244L30.7197 27.0647L31.5274 26.2052L28.5892 23.08L25.6511 19.9547L23.3419 22.3949L21.0326 24.8352L16.4184 19.9289L11.8044 15.0226L10.1736 16.751C9.27659 17.7018 8.48487 18.4795 8.41419 18.4795C8.34351 18.4795 8.28567 16.7111 8.28567 14.5497V10.6199H22.1755H36.0653V19.0348V27.4494L36.6954 28.1201L37.3256 28.7908L37.9262 28.1132L38.5268 27.4354V17.9423C38.5268 10.8081 38.4744 8.39336 38.3158 8.22456C38.1547 8.05315 34.3292 8 22.1697 8C13.4052 8 6.18162 8.05614 6.11727 8.12482ZM31.8456 13.4269C31.3753 13.9275 31.4024 14.4692 31.9256 15.026C32.4487 15.5829 32.9577 15.6117 33.428 15.1111C34.1244 14.3699 33.618 13.0526 32.6368 13.0526C32.395 13.0526 32.039 13.2211 31.8456 13.4269ZM24.9886 32.7476C24.9886 32.8253 21.2304 32.8889 16.6371 32.8889H8.28567V27.5121V22.1354L9.99781 20.3062L11.7099 18.4769L18.3493 25.5416C22.0009 29.4273 24.9886 32.6699 24.9886 32.7476ZM32.3708 28.8679L31.5921 29.7125L33.5649 31.8183C34.6501 32.9765 35.5378 34.0055 35.5378 34.1053C35.5378 34.205 34.6503 35.2339 33.5655 36.3919L31.5931 38.4971L32.2825 39.2485C32.6616 39.6618 33.0535 40 33.1532 40C33.253 40 34.2259 39.054 35.3152 37.8977L37.296 35.7957L39.2768 37.8977C40.3662 39.054 41.339 40 41.4389 40C41.5386 40 41.9273 39.6652 42.3025 39.2561L42.9849 38.5125L42.6459 38.0948C42.4595 37.865 41.6726 36.9997 40.8974 36.1718C38.7014 33.827 38.6903 34.3124 40.9967 31.8507L43 29.7125L42.219 28.8655L41.438 28.0185L39.4961 30.0794C38.4281 31.2129 37.459 32.1404 37.3426 32.1404C37.2261 32.1404 36.2522 31.214 35.1783 30.0819C34.1045 28.9497 33.2087 28.0234 33.1876 28.0234C33.1667 28.0234 32.7991 28.4035 32.3708 28.8679Z" fill="#333333"/>
</svg>
