<svg width="48" height="48" viewBox="0 0 48 48" fill="none" xmlns="http://www.w3.org/2000/svg">
<path fill-rule="evenodd" clip-rule="evenodd" d="M9.11048 8.30054C7.95817 9.00749 8.00019 8.45771 8.00019 22.8049V35.7641L10.1212 37.8821L12.2423 40H26.1211H40L39.954 24.597L39.908 9.1941L39.3426 8.62822L38.7773 8.06234L24.2102 8.01803C10.1929 7.97545 9.62308 7.98618 9.11048 8.30054ZM12.5378 17.0205L12.5832 23.8148L24.0406 23.8593L35.498 23.9038V17.065V10.2261H36.6231H37.7483L37.704 23.9446L37.6597 37.6631H34.2874H30.915L30.8688 33.1191L30.8228 28.5751H22.8732H14.9236L14.8776 33.1191L14.8314 37.6631L13.981 37.7171L13.1307 37.7709L11.6896 36.3361L10.2484 34.9011V22.5636V10.2261H11.3705H12.4927L12.5378 17.0205ZM33.2089 15.8953L33.1633 21.5644L24.0406 21.6093L14.9179 21.6541V15.9401V10.2261H24.0862H33.2544L33.2089 15.8953ZM28.5407 34.2443L28.4938 37.6631L25.2205 37.7104C22.7203 37.7464 21.9127 37.7055 21.8008 37.5373C21.7202 37.4161 21.6695 36.3821 21.6884 35.2396L21.7223 33.1624H20.622H19.5218L19.5671 34.9864C19.592 35.9895 19.5586 37.0252 19.4927 37.2876C19.3763 37.7516 19.3428 37.7637 18.3127 37.7142L17.2526 37.6631L17.2057 34.2443L17.1589 30.8255H22.8732H28.5876L28.5407 34.2443Z" fill="#333333"/>
</svg>
