<svg width="48" height="48" viewBox="0 0 48 48" fill="none" xmlns="http://www.w3.org/2000/svg">
<path fill-rule="evenodd" clip-rule="evenodd" d="M17.5258 8.28557C15.8829 8.9768 14.4825 9.56349 14.414 9.5893C14.3454 9.61512 14.545 10.7506 14.8576 12.1125L15.426 14.5889L15.0104 15.0289L14.5949 15.4688L12.2199 14.9259C10.9136 14.6273 9.77781 14.3815 9.69602 14.3797C9.56928 14.3767 7 20.3536 7 20.6516C7 20.7095 7.95386 21.3478 9.11966 22.0701L11.2393 23.3835L11.2533 24.0082L11.2672 24.6329L9.1336 25.962C7.96012 26.6931 7 27.3436 7 27.4075C7 27.4714 7.57607 28.9115 8.28016 30.6077L9.56032 33.6919L10.0582 33.6055C10.332 33.5582 11.4646 33.3065 12.5751 33.0466L14.5941 32.5739L15.0201 33.0143L15.4461 33.4547L14.8727 35.9123C14.5574 37.264 14.3212 38.3895 14.348 38.4133C14.3857 38.4473 19.7999 40.71 20.5347 40.999C20.6267 41.0351 21.2838 40.123 22.0282 38.9258L23.3576 36.7882H24.0186H24.6797L25.9976 38.9222C27.002 40.5485 27.3694 41.0357 27.5413 40.97C27.6655 40.9225 29.0953 40.3367 30.7185 39.668C32.844 38.7924 33.6696 38.3881 33.6683 38.223C33.6675 38.097 33.4434 37.0434 33.1705 35.8818C32.8977 34.72 32.6743 33.662 32.6743 33.5305C32.6743 33.2068 33.2646 32.6746 33.6237 32.6746C33.7837 32.6746 34.8677 32.8973 36.0326 33.1693C37.1974 33.4416 38.222 33.665 38.3092 33.6658C38.4291 33.6671 40.1506 29.7467 40.9938 27.5524C41.0614 27.377 40.5863 27.0162 38.9405 25.9937L36.7993 24.6631V24.0205V23.3781L38.684 22.2186C39.7206 21.581 40.6879 20.9714 40.8334 20.8641C41.0853 20.6786 41.0344 20.516 39.7844 17.5226C39.0618 15.7921 38.3985 14.3774 38.3106 14.379C38.2226 14.3805 37.0945 14.628 35.8036 14.9289L33.4567 15.476L33.0655 15.1123C32.8504 14.9123 32.6743 14.6334 32.6743 14.4927C32.6743 14.3519 32.9066 13.2125 33.1905 11.9606C33.4744 10.7088 33.6804 9.65824 33.6484 9.62618C33.5969 9.57483 27.4127 7 27.3411 7C27.3256 7 26.7172 7.95748 25.9891 9.12773L24.6654 11.2555H24.0115H23.3576L22.0345 9.12773C21.3068 7.95748 20.6667 7.00653 20.6121 7.01447C20.5575 7.02227 19.1686 7.59435 17.5258 8.28557ZM21.1641 11.216L22.3841 13.1625H24.0052H25.6263L26.7409 11.3933C27.354 10.4203 27.9032 9.54278 27.9612 9.44334C28.0412 9.30646 28.4805 9.43313 29.7661 9.96364C30.7006 10.3495 31.4838 10.7546 31.5064 10.8641C31.529 10.9736 31.3262 12.0013 31.0557 13.1481L30.5639 15.2332L31.7004 16.3665L32.8371 17.4999L34.9823 16.9973C36.1624 16.721 37.1875 16.5146 37.2607 16.539C37.3338 16.5633 37.7096 17.3439 38.0958 18.2736C38.6297 19.5588 38.7544 19.9902 38.6164 20.0739C38.5167 20.1345 37.6421 20.682 36.6729 21.2907L34.9106 22.3974L34.8949 24.0004L34.8791 25.6034L36.7282 26.7506C37.7452 27.3814 38.6297 27.9427 38.6937 27.9978C38.8002 28.0895 37.6109 31.1663 37.3597 31.4493C37.3 31.5164 36.2524 31.3419 35.0317 31.0613L32.8122 30.5513L31.6812 31.6791L30.5503 32.8069L31.064 35.0181C31.3602 36.2931 31.5238 37.2771 31.4504 37.3423C31.3804 37.4044 30.5937 37.7567 29.7022 38.1251C28.4292 38.6512 28.056 38.7548 27.9632 38.6073C27.8982 38.504 27.3529 37.6215 26.7513 36.6463L25.6575 34.8732L24.0186 34.8802L22.3797 34.8873L21.2646 36.6533C20.6511 37.6247 20.1003 38.4994 20.0406 38.5973C19.9591 38.7308 19.5085 38.6006 18.2344 38.0756C17.3007 37.6908 16.5177 37.3186 16.4942 37.2485C16.4708 37.1783 16.6773 36.1486 16.9531 34.96L17.4545 32.7991L16.3241 31.6719L15.1937 30.5446L13.0697 31.0422C11.9015 31.3158 10.8829 31.5398 10.8061 31.5398C10.6806 31.5398 10.2094 30.525 9.49063 28.7065L9.23374 28.0566L11.1917 26.8564L13.1495 25.6563L13.1297 24.0352L13.1098 22.4138L11.3351 21.2932C10.359 20.6768 9.47853 20.1254 9.37854 20.0679C9.24128 19.9889 9.37541 19.5404 9.9273 18.2337C10.3291 17.2823 10.7311 16.5046 10.8203 16.5056C10.9096 16.5064 11.9349 16.7297 13.0985 17.0015L15.2144 17.4958L16.3463 16.367L17.4783 15.2381L16.9611 13.0179C16.6766 11.7968 16.4711 10.7706 16.5042 10.7374C16.5674 10.6744 19.7488 9.29795 19.8729 9.27993C19.9121 9.27426 20.4932 10.1455 21.1641 11.216ZM22.351 18.0025C19.2758 18.8378 17.3192 21.9064 17.8572 25.0502C18.4821 28.702 22.0181 30.9835 25.6079 30.0511C27.7619 29.4915 29.2594 28.0715 29.9836 25.9015C30.3783 24.7187 30.3156 22.9466 29.8351 21.7035C28.7233 18.8276 25.3871 17.1776 22.351 18.0025ZM25.5692 19.8977C26.5301 20.2618 27.2106 20.7992 27.7144 21.5914C29.1196 23.8011 28.3923 26.6818 26.1175 27.9166C25.5241 28.2386 25.1275 28.3405 24.2876 28.3872C22.8524 28.4671 21.8366 28.0946 20.8752 27.1357C18.1186 24.3868 20.0603 19.6644 23.9606 19.6319C24.5089 19.6274 25.1237 19.7289 25.5692 19.8977Z" fill="#333333"/>
</svg>
