<svg width="48" height="48" viewBox="0 0 48 48" fill="none" xmlns="http://www.w3.org/2000/svg">
<path fill-rule="evenodd" clip-rule="evenodd" d="M29.238 11.3084V14.617L28.0497 14.7226C21.1415 15.3362 15.4316 19.9617 13.5731 26.4497C13.2235 27.67 12.7834 31.6305 12.895 32.5533L12.9538 33.0408L14.1861 31.9489C17.9137 28.6465 22.6764 26.6271 27.6095 26.2577L29.238 26.1356V29.614V33.0924L35.6189 26.7541L42 20.416L35.752 14.208C32.3156 10.7936 29.4441 8 29.3709 8C29.2978 8 29.238 9.48879 29.238 11.3084ZM35.1779 16.96C37.0426 18.8106 38.5684 20.4046 38.5684 20.5027C38.5684 20.7043 31.8587 27.4098 31.657 27.4098C31.5852 27.4098 31.5265 26.6116 31.5265 25.636V23.8624L28.8419 23.9608C24.0742 24.1355 19.8176 25.3459 16.3713 27.5069C16.0138 27.7311 15.6814 27.8751 15.633 27.8271C15.4871 27.6819 16.1198 25.8191 16.6954 24.6995C18.9467 20.3205 22.8914 17.5867 27.6599 17.1006C28.6452 17.0002 29.9182 16.918 30.4889 16.918H31.5265V15.2568C31.5265 14.3432 31.5852 13.5956 31.657 13.5956C31.7286 13.5956 33.313 15.1096 35.1779 16.96ZM6 28.4506V40H19.9076H33.8151V36.639V33.2779L32.6708 34.4044L31.5265 35.5308V36.6288V37.7268H19.909H8.2914L8.24598 27.3661L8.20056 17.0055L7.10028 16.9534L6 16.9014V28.4506Z" fill="#333333"/>
</svg>
