<svg width="36" height="36" viewBox="0 0 36 36" fill="none" xmlns="http://www.w3.org/2000/svg">
<path fill-rule="evenodd" clip-rule="evenodd" d="M11.6121 6.93256C9.23701 7.59297 7.28632 9.67854 6.84756 12.0265C6.6392 13.1411 6.77152 14.5683 7.17822 15.5954C7.46789 16.3266 7.52606 16.7281 7.57545 18.3301C7.62659 19.9944 7.68016 20.3406 8.04682 21.3764C9.57132 25.6836 13.6321 28.5064 18.2274 28.4533C19.1874 28.4421 19.5218 28.4994 20.2511 28.8C21.2985 29.2316 22.917 29.3733 24.0747 29.1349C26.2565 28.6853 28.1509 27.025 28.9429 24.8684C29.364 23.722 29.35 21.7049 28.9136 20.6102C28.6607 19.9758 28.5855 19.5073 28.5587 18.3972C28.514 16.5506 28.3216 15.511 27.7768 14.1718C26.6341 11.3624 24.2794 9.16794 21.3699 8.20067C20.2942 7.8431 19.7451 7.74586 18.3627 7.6678C16.9436 7.58787 16.53 7.51209 15.7921 7.19704C14.6951 6.72883 12.7804 6.60772 11.6121 6.93256ZM15.4538 8.67411C16.1829 9.02175 16.4516 9.06963 18.0921 9.14434C20.1192 9.23648 21.2257 9.53382 22.6676 10.374C23.9367 11.1135 25.3909 12.6685 26.0406 13.981C26.8423 15.6009 27.0472 16.5294 27.0129 18.3877C26.9859 19.8502 27.0066 19.9858 27.3728 20.7443C27.7119 21.4464 27.7615 21.703 27.7615 22.7561C27.7615 23.784 27.7077 24.0777 27.3988 24.7348C26.2665 27.144 23.515 28.3554 21.051 27.5293C20.5771 27.3704 20.0826 27.1602 19.9523 27.0622C19.7785 26.9315 19.3782 26.9016 18.4479 26.9499C15.3175 27.1122 12.2324 25.5687 10.4681 22.9573C9.37366 21.3375 8.77971 18.9695 9.00606 17.1292C9.10225 16.3478 9.08277 16.1301 8.88619 15.788C7.63944 13.6173 8.24462 10.6655 10.2331 9.21864C11.737 8.12408 13.8403 7.9048 15.4538 8.67411ZM16.9421 11.9076C14.6672 12.4877 13.7192 13.4304 13.7143 15.1174C13.7096 16.7055 14.6105 17.6465 17.197 18.7547C19.3503 19.6775 19.8888 20.2203 19.5775 21.155C19.3513 21.8346 18.863 22.083 17.7539 22.0824C17.0061 22.0821 16.6397 22.0048 16.0125 21.7149C15.1843 21.3321 14.4701 21.2502 14.0243 21.4867C13.5919 21.7161 13.6658 22.6259 14.1536 23.0776C14.7158 23.5982 15.39 23.7778 17.081 23.8574C18.8654 23.9413 19.8689 23.765 20.6838 23.224C21.6244 22.5997 21.9396 22.019 21.9952 20.8083C22.086 18.8305 21.3293 18.0588 17.9276 16.6595C16.7888 16.191 16.0627 15.5349 16.0627 14.9746C16.0627 14.7939 16.2389 14.4504 16.4545 14.2113C16.8177 13.8082 16.9185 13.773 17.8413 13.727C18.5951 13.6893 19.0401 13.7453 19.6775 13.9583C20.7109 14.3036 21.0961 14.3117 21.3859 13.9941C21.9342 13.3935 21.4465 12.4642 20.3921 12.101C19.8935 11.9292 17.4042 11.7897 16.9421 11.9076Z" fill="black"/>
</svg>
