<svg width="48" height="48" viewBox="0 0 48 48" fill="none" xmlns="http://www.w3.org/2000/svg">
<path d="M15.9231 41L15.2103 41.7014C15.3983 41.8924 15.6551 42 15.9231 42C16.1911 42 16.4478 41.8924 16.6358 41.7014L15.9231 41ZM29.7692 26.931V25.931H28.7692V26.931H29.7692ZM29.7692 41H28.7692V42H29.7692V41ZM16.6358 41.7014L23.5589 34.667L22.1334 33.2641L15.2103 40.2986L16.6358 41.7014ZM16.6358 40.2986L9.71273 33.2641L8.28727 34.667L15.2103 41.7014L16.6358 40.2986ZM14.9231 7V41H16.9231V7H14.9231ZM29.7692 27.931H35.5385V25.931H29.7692V27.931ZM35.5385 32.9655H29.7692V34.9655H35.5385V32.9655ZM30.7692 33.9655V26.931H28.7692V33.9655H30.7692ZM38 30.4483C38 31.8536 36.8829 32.9655 35.5385 32.9655V34.9655C38.0175 34.9655 40 32.928 40 30.4483H38ZM35.5385 27.931C36.8829 27.931 38 29.0429 38 30.4483H40C40 27.9686 38.0175 25.931 35.5385 25.931V27.931ZM35.5385 40H29.7692V42H35.5385V40ZM30.7692 41V33.9655H28.7692V41H30.7692ZM38 37.4828C38 38.8881 36.8829 40 35.5385 40V42C38.0175 42 40 39.9625 40 37.4828H38ZM35.5385 34.9655C36.8829 34.9655 38 36.0774 38 37.4828H40C40 35.0031 38.0175 32.9655 35.5385 32.9655V34.9655ZM30.7692 23.4138V12.8621H28.7692V23.4138H30.7692ZM38 12.8621V23.4138H40V12.8621H38ZM34.3846 9.17241C36.3663 9.17241 38 10.8092 38 12.8621H40C40 9.73487 37.5009 7.17241 34.3846 7.17241V9.17241ZM30.7692 12.8621C30.7692 10.8092 32.4029 9.17241 34.3846 9.17241V7.17241C31.2683 7.17241 28.7692 9.73487 28.7692 12.8621H30.7692ZM29.7692 18.5517H39V16.5517H29.7692V18.5517Z" fill="#333333"/>
</svg>
