<svg width="48" height="48" viewBox="0 0 48 48" fill="none" xmlns="http://www.w3.org/2000/svg">
<path d="M15.6923 8L16.3956 7.2891C16.006 6.90363 15.3787 6.90363 14.989 7.2891L15.6923 8ZM29.0769 25.6552V24.6552H28.0769V25.6552H29.0769ZM29.0769 38.8966H28.0769V39.8966H29.0769V38.8966ZM14.989 7.2891L8.29671 13.9098L9.70329 15.3316L16.3956 8.7109L14.989 7.2891ZM14.989 8.7109L21.6813 15.3316L23.0879 13.9098L16.3956 7.2891L14.989 8.7109ZM14.6923 8V40H16.6923V8H14.6923ZM29.0769 26.6552H34.6538V24.6552H29.0769V26.6552ZM34.6538 31.2759H29.0769V33.2759H34.6538V31.2759ZM30.0769 32.2759V25.6552H28.0769V32.2759H30.0769ZM37 28.9655C37 30.2314 35.9598 31.2759 34.6538 31.2759V33.2759C37.044 33.2759 39 31.3562 39 28.9655H37ZM34.6538 26.6552C35.9598 26.6552 37 27.6997 37 28.9655H39C39 26.5749 37.044 24.6552 34.6538 24.6552V26.6552ZM34.6538 37.8966H29.0769V39.8966H34.6538V37.8966ZM30.0769 38.8966V32.2759H28.0769V38.8966H30.0769ZM37 35.5862C37 36.8521 35.9598 37.8966 34.6538 37.8966V39.8966C37.044 39.8966 39 37.9769 39 35.5862H37ZM34.6538 33.2759C35.9598 33.2759 37 34.3204 37 35.5862H39C39 33.1956 37.044 31.2759 34.6538 31.2759V33.2759ZM30.0769 22.3448V12.4138H28.0769V22.3448H30.0769ZM37 12.4138V22.3448H39V12.4138H37ZM33.5385 9C35.4604 9 37 10.5385 37 12.4138H39C39 9.41372 36.5446 7 33.5385 7V9ZM30.0769 12.4138C30.0769 10.5385 31.6165 9 33.5385 9V7C30.5323 7 28.0769 9.41372 28.0769 12.4138H30.0769ZM29.0769 17.8276H38V15.8276H29.0769V17.8276Z" fill="#333333"/>
</svg>
