<svg width="48" height="48" viewBox="0 0 48 48" fill="none" xmlns="http://www.w3.org/2000/svg">
<path d="M33.6087 7H34.6087C34.6087 6.44772 34.161 6 33.6087 6V7ZM17.7826 7L18.492 6.29523C18.3043 6.10627 18.049 6 17.7826 6C17.5162 6 17.2609 6.10627 17.0732 6.29523L17.7826 7ZM30.2174 8H33.6087V6H30.2174V8ZM32.6087 7V20.6552H34.6087V7H32.6087ZM30.2174 21.6552H37V19.6552H30.2174V21.6552ZM33.785 24.2069H32.4783V26.2069H33.785V24.2069ZM36.8189 32.3488L37.7056 29.671L35.807 29.0423L34.9203 31.7201L36.8189 32.3488ZM32.4783 33.0345H35.8696V31.0345H32.4783V33.0345ZM34.558 39.1764L36.8189 32.3488L34.9203 31.7201L32.6594 38.5477L34.558 39.1764ZM28.087 28.6207C28.087 31.0521 30.0468 33.0345 32.4783 33.0345V31.0345C31.1638 31.0345 30.087 29.96 30.087 28.6207H28.087ZM32.4783 24.2069C30.0468 24.2069 28.087 26.1893 28.087 28.6207H30.087C30.087 27.2813 31.1638 26.2069 32.4783 26.2069V24.2069ZM33.785 26.2069C35.2317 26.2069 36.2717 27.6391 35.807 29.0423L37.7056 29.671C38.593 26.9913 36.6139 24.2069 33.785 24.2069V26.2069ZM17.0732 6.29523L10.2906 13.1228L11.7094 14.5324L18.492 7.70477L17.0732 6.29523ZM17.0732 7.70477L23.8558 14.5324L25.2747 13.1228L18.492 6.29523L17.0732 7.70477ZM16.7826 7V40H18.7826V7H16.7826Z" fill="#333333"/>
</svg>
