<svg width="49" height="48" viewBox="0 0 49 48" fill="none" xmlns="http://www.w3.org/2000/svg">
<path fill-rule="evenodd" clip-rule="evenodd" d="M23.0872 7.81351C23.027 7.87386 22.9776 14.3179 22.9776 22.1337V36.3443L20.3112 33.681L17.6446 31.0179L16.9751 31.7002C16.6067 32.0756 16.3307 32.4466 16.3618 32.525C16.3928 32.6033 18.1415 34.3591 20.2477 36.4266L24.0774 40.1859L27.9609 36.3024L31.8445 32.4188L31.2382 31.7981C30.9048 31.4565 30.5585 31.1772 30.4687 31.1772C30.3788 31.1772 29.1608 32.3231 27.7621 33.7238C26.3635 35.1244 25.1664 36.2704 25.1024 36.2704C25.0382 36.2704 24.968 29.8633 24.9462 22.0325L24.9068 7.79453L24.0518 7.74915C23.5815 7.7243 23.1475 7.75317 23.0872 7.81351Z" fill="#333333"/>
</svg>
