<svg width="48" height="48" viewBox="0 0 48 48" fill="none" xmlns="http://www.w3.org/2000/svg">
<path d="M33.39 7.2069H34.39C34.39 6.65461 33.9422 6.2069 33.39 6.2069V7.2069ZM35.7289 33.7586L36.6805 34.066L35.7289 33.7586ZM36.8561 30.2689L35.9046 29.9615L36.8561 30.2689ZM17.017 41L16.2988 41.6959C16.4872 41.8903 16.7463 42 17.017 42C17.2877 42 17.5468 41.8903 17.7351 41.6959L17.017 41ZM29.8815 8.2069H33.39V6.2069H29.8815V8.2069ZM32.39 7.2069V21.6897H34.39V7.2069H32.39ZM29.8815 22.6897H36.8984V20.6897H29.8815V22.6897ZM34.2359 25.5172H32.2205V27.5172H34.2359V25.5172ZM36.6805 34.066L37.8077 30.5763L35.9046 29.9615L34.7774 33.4513L36.6805 34.066ZM32.2205 34.7586H35.7289V32.7586H32.2205V34.7586ZM34.3415 41.3074L36.6805 34.066L34.7774 33.4513L32.4384 40.6926L34.3415 41.3074ZM27.712 30.1379C27.712 32.66 29.701 34.7586 32.2205 34.7586V32.7586C30.8645 32.7586 29.712 31.6152 29.712 30.1379H27.712ZM32.2205 25.5172C29.701 25.5172 27.712 27.6159 27.712 30.1379H29.712C29.712 28.6607 30.8645 27.5172 32.2205 27.5172V25.5172ZM34.2359 27.5172C35.3986 27.5172 36.3058 28.7193 35.9046 29.9615L37.8077 30.5763C38.5988 28.1272 36.8437 25.5172 34.2359 25.5172V27.5172ZM17.7351 41.6959L24.7521 34.4545L23.3158 33.0627L16.2988 40.3041L17.7351 41.6959ZM17.7351 40.3041L10.7181 33.0627L9.28185 34.4545L16.2988 41.6959L17.7351 40.3041ZM16.017 6V41H18.017V6H16.017Z" fill="#333333"/>
</svg>
