<svg width="48" height="48" viewBox="0 0 48 48" fill="none" xmlns="http://www.w3.org/2000/svg">
<path fill-rule="evenodd" clip-rule="evenodd" d="M23.6398 7.66873C23.5004 8.10587 23.0449 9.57197 22.6277 10.9267C22.2103 12.2815 21.8038 13.5747 21.7245 13.8005C21.645 14.0263 21.204 15.4119 20.7445 16.8795L19.9088 19.548H13.4273C9.48591 19.548 6.96705 19.6081 7.00033 19.7012C7.03032 19.7854 9.231 21.5275 11.8907 23.5725C14.5503 25.6173 16.8625 27.4233 17.0289 27.5859C17.3226 27.8726 17.3121 27.9427 16.6671 29.9957C14.4497 37.0535 13.3612 40.6604 13.4017 40.8176C13.4271 40.9161 15.7716 39.1999 18.6116 37.0037C21.4515 34.8077 23.8858 33.0368 24.021 33.0686C24.2248 33.1168 30.6844 38.0056 33.7186 40.4082C34.1789 40.7727 34.5896 41.0371 34.6309 40.9957C34.6723 40.9542 34.4484 40.1205 34.1332 39.1427C33.8181 38.165 32.9162 35.296 32.1289 32.7672C31.3417 30.2383 30.6662 28.0859 30.628 27.9841C30.5896 27.8823 32.8875 26.0075 35.7342 23.818C38.5809 21.6285 40.9503 19.7719 40.9993 19.6925C41.0501 19.6102 38.2736 19.548 34.5484 19.548H28.0082L26.4843 14.6626C25.6464 11.9756 24.7777 9.18607 24.5543 8.46353C24.3309 7.74099 24.0907 7.08775 24.0206 7.01188C23.9506 6.93601 23.7793 7.2316 23.6398 7.66873ZM25.2698 17.8648L26.4266 21.6006L30.5513 21.6445C32.82 21.6686 34.6761 21.7458 34.6761 21.8161C34.6761 21.8864 33.34 22.9751 31.7071 24.2354C30.0741 25.4958 28.5988 26.6379 28.4286 26.7734C28.1421 27.0016 28.1364 27.074 28.3508 27.7586C28.478 28.1651 29.0312 29.9263 29.58 31.6723C30.1289 33.4184 30.578 34.9522 30.578 35.0806C30.578 35.297 29.1491 34.25 25.4488 31.3222L24.0079 30.1823L21.6786 31.9581C20.3973 32.9348 18.9551 34.0521 18.4735 34.4411C17.487 35.2377 17.2236 35.3203 17.3951 34.7788C18.2752 32.0014 19.759 27.1662 19.759 27.0755C19.759 27.0108 18.966 26.3479 17.9968 25.6023C17.0277 24.857 15.5708 23.7374 14.7593 23.1143C13.9479 22.4913 13.2594 21.9143 13.2294 21.8322C13.1975 21.745 14.9067 21.6827 17.3385 21.6827H21.5022L22.6223 18.029C23.8238 14.1089 23.8168 14.1289 23.9948 14.1289C24.0599 14.1289 24.6338 15.81 25.2698 17.8648Z" fill="#333333"/>
</svg>
