<svg width="36" height="36" viewBox="0 0 36 36" fill="none" xmlns="http://www.w3.org/2000/svg">
<path fill-rule="evenodd" clip-rule="evenodd" d="M13.5607 6.09321C11.7687 6.49718 10.1913 7.9753 9.67414 9.73496C9.23293 11.2363 9.51717 12.569 10.8434 15.2163C11.1606 15.8496 11.7034 16.8609 12.0495 17.4637C12.617 18.452 14.2713 21.1054 14.5716 21.5093C14.6845 21.661 14.7375 21.6001 15.4655 20.4842C17.7019 17.0556 19.3334 13.8814 19.7545 12.1393C19.9369 11.3851 19.8828 10.2625 19.6285 9.52371C18.9301 7.49457 17.0579 6.09755 14.9166 6.00759C14.3722 5.98471 13.9133 6.01366 13.5607 6.09321ZM15.4815 6.82866C16.4138 7.00703 17.0903 7.36639 17.784 8.05173C18.8169 9.072 19.3165 10.5074 19.0649 11.7316C18.7518 13.2551 17.1605 16.4351 15.1375 19.58L14.6922 20.2722L14.54 20.0721C14.1522 19.5616 12.115 16.0527 11.567 14.9513C10.4716 12.7494 10.1408 11.6315 10.2845 10.6166C10.5639 8.64351 12.0401 7.12651 13.9992 6.79922C14.6263 6.69441 14.7979 6.69785 15.4815 6.82866ZM14.2578 8.75324C13.7763 8.83656 13.3171 9.08176 12.9439 9.45498C12.46 9.93883 12.2998 10.3277 12.2636 11.1057C12.2364 11.6907 12.2586 11.8253 12.4482 12.2261C12.6961 12.75 13.1695 13.2123 13.7147 13.4627C14.251 13.7089 15.1763 13.6986 15.7123 13.4404C16.2051 13.2028 16.6881 12.7214 16.9331 12.2233C17.2154 11.6498 17.2023 10.6835 16.9044 10.1076C16.3983 9.12875 15.309 8.57126 14.2578 8.75324ZM15.3458 9.62466C16.0482 9.91809 16.3811 10.486 16.3345 11.3107C16.3079 11.7829 16.2652 11.9138 16.0517 12.1789C15.6704 12.6523 15.2523 12.8574 14.6678 12.8574C14.0558 12.8574 13.6289 12.6354 13.2771 12.1344C13.0551 11.8183 13.0277 11.7145 13.0285 11.192C13.0294 10.6924 13.0618 10.5579 13.246 10.2902C13.742 9.56922 14.5787 9.30409 15.3458 9.62466ZM28.5524 15.4433L26.6265 17.3705H25.9207H26.2149L24.5458 15.6894H22.8687L21.4335 14.0082H19.7933V14.4182V14.8283H21.2117L22.6226 16.4684H24.2116L25.7932 18.1086H25.8726H26.9518L28.7352 16.3266L30.8076 14.1723H31.5047V15.5202V16.0584V16.5966L31.0126 17.0835L30.5206 17.5704V20.6916V23.8126V24.8335H31.7507V25.9406H30.3155V27.2116V28.2778L29.7005 28.8109L28.7164 27.8268L27.8143 26.903H25.6291H22.4586L18.1018 26.8835H15.6462H13.1907L10.4644 24.1562L7.73808 21.4291V18.1286V14.8283H8.64017H9.54227V14.4182V14.0082H8.27113H7V17.9245V21.8408L9.93222 24.7722L12.8644 27.7036H15.3252H17.7858H23.0936H25.7683H27.3632L28.5524 28.8929L29.7005 30L30.5206 29.3029L31.2586 28.6506V27.9487V27.247V26.7661H32.5708V25.9406V25.2025V24.0134H31.3406V20.9551V17.8519L31.7917 17.4009L32.2427 16.9498V16.0721V15.1944V13.5161C32.2427 13.5161 30.5407 13.5161 30.5185 13.5161C30.4964 13.5161 29.6116 14.3834 28.5524 15.4433ZM13.6427 15.8534V16.2224H14.0527H14.4628V15.8534V15.4843H14.0527H13.6427V15.8534ZM14.9548 15.8534V16.2224H15.3239H15.6929V15.8534V15.4843H15.3239H14.9548V15.8534Z" fill="#333333"/>
<path d="M22.4586 26.903H25.6291H27.8143L28.7164 27.8268L29.7005 28.8109L30.3155 28.2778V27.2116V25.9406H31.7507V24.8335H30.5206V23.8126V20.6916V17.5704L31.0126 17.0835L31.5047 16.5966V16.0584V15.5202V14.1723H30.8076L28.7352 16.3266L26.9518 18.1086H25.8726H25.7932L24.2116 16.4684H22.6226L21.2117 14.8283H19.7933V14.4182V14.0082H21.4335L22.8687 15.6894H24.5458L26.2149 17.3705H25.9207H26.6265L28.5524 15.4433C29.6116 14.3834 30.4964 13.5161 30.5185 13.5161C30.5407 13.5161 32.2427 13.5161 32.2427 13.5161V15.1944V16.0721V16.9498L31.7917 17.4009L31.3406 17.8519V20.9551V24.0134H32.5708V25.2025V25.9406V26.7661H31.2586V27.247V27.9487V28.6506L30.5206 29.3029L29.7005 30L28.5524 28.8929L27.3632 27.7036H25.7683H23.0936M22.4586 26.903L23.0936 27.7036M22.4586 26.903L18.1018 26.8835H15.6462H13.1907L10.4644 24.1562L7.73808 21.4291V18.1286V14.8283H8.64017H9.54227V14.4182V14.0082H8.27113H7V17.9245V21.8408L9.93222 24.7722L12.8644 27.7036H15.3252H17.7858H23.0936M13.5607 6.09321C11.7687 6.49718 10.1913 7.9753 9.67414 9.73496C9.23293 11.2363 9.51717 12.569 10.8434 15.2163C11.1606 15.8496 11.7034 16.8609 12.0495 17.4637C12.617 18.452 14.2713 21.1054 14.5716 21.5093C14.6845 21.661 14.7375 21.6001 15.4655 20.4842C17.7019 17.0556 19.3334 13.8814 19.7545 12.1393C19.9369 11.3851 19.8828 10.2625 19.6285 9.52371C18.9301 7.49457 17.0579 6.09755 14.9166 6.00759C14.3722 5.98471 13.9133 6.01366 13.5607 6.09321ZM15.4815 6.82866C16.4138 7.00703 17.0903 7.36639 17.784 8.05173C18.8169 9.072 19.3165 10.5074 19.0649 11.7316C18.7518 13.2551 17.1605 16.4351 15.1375 19.58L14.6922 20.2722L14.54 20.0721C14.1522 19.5616 12.115 16.0527 11.567 14.9513C10.4716 12.7494 10.1408 11.6315 10.2845 10.6166C10.5639 8.64351 12.0401 7.12651 13.9992 6.79922C14.6263 6.69441 14.7979 6.69786 15.4815 6.82866ZM14.2578 8.75324C13.7763 8.83656 13.3171 9.08176 12.9439 9.45498C12.46 9.93883 12.2998 10.3277 12.2636 11.1057C12.2364 11.6907 12.2586 11.8253 12.4482 12.2261C12.6961 12.75 13.1695 13.2123 13.7147 13.4627C14.251 13.7089 15.1763 13.6986 15.7123 13.4404C16.2051 13.2028 16.6881 12.7214 16.9331 12.2233C17.2154 11.6498 17.2023 10.6835 16.9044 10.1076C16.3983 9.12875 15.309 8.57126 14.2578 8.75324ZM15.3458 9.62466C16.0482 9.91809 16.3811 10.486 16.3345 11.3107C16.3079 11.7829 16.2652 11.9138 16.0517 12.1789C15.6704 12.6523 15.2523 12.8574 14.6678 12.8574C14.0558 12.8574 13.6289 12.6354 13.2771 12.1344C13.0551 11.8183 13.0277 11.7145 13.0285 11.192C13.0294 10.6924 13.0618 10.5579 13.246 10.2902C13.742 9.56922 14.5787 9.30409 15.3458 9.62466ZM13.6427 15.8534V16.2224H14.0527H14.4628V15.8534V15.4843H14.0527H13.6427V15.8534ZM14.9548 15.8534V16.2224H15.3239H15.6929V15.8534V15.4843H15.3239H14.9548V15.8534Z" stroke="#333333" stroke-width="0.5"/>
</svg>
