<svg width="48" height="48" viewBox="0 0 48 48" fill="none" xmlns="http://www.w3.org/2000/svg">
<path fill-rule="evenodd" clip-rule="evenodd" d="M31.297 20.5718C31.297 29.4397 31.2329 36.6953 31.1543 36.6953C31.0759 36.6953 30.2227 35.9031 29.2584 34.9347C28.2942 33.9664 27.4166 33.1741 27.3084 33.1741C27.2002 33.1741 26.7619 33.5305 26.3343 33.9662L25.5571 34.7581L29.0312 38.2287L32.5054 41.6994L35.8858 38.3151C37.745 36.4539 39.2662 34.8447 39.2662 34.7388C39.2662 34.5012 37.926 33.1741 37.6862 33.1741C37.5902 33.1741 36.6556 34.0274 35.6091 35.0704L33.7063 36.9667V20.7075V4.44824H32.5017H31.297V20.5718ZM11.8494 9.90356C8.07931 13.6778 8.27076 13.3016 9.51023 14.5001L10.0553 15.0273L11.9226 13.1663C12.9496 12.1429 13.851 11.3054 13.9257 11.3054C14.0004 11.3054 14.0615 18.5649 14.0615 27.4375V43.5694L15.3125 43.5147L16.5635 43.4598L16.6083 27.5216C16.6329 18.7556 16.6537 11.5015 16.6546 11.4014C16.6554 11.3013 17.532 12.0923 18.6024 13.159L20.5489 15.0989L21.4266 14.2212L22.3044 13.3434L18.8797 9.91505C16.9962 8.02952 15.4118 6.48685 15.3588 6.48685C15.3058 6.48685 13.7266 8.02434 11.8494 9.90356Z" fill="#333333"/>
</svg>
