<svg width="48" height="48" viewBox="0 0 48 48" fill="none" xmlns="http://www.w3.org/2000/svg">
<path fill-rule="evenodd" clip-rule="evenodd" d="M21.8028 5.55394C17.3641 6.35957 14.3989 7.67104 11.605 10.064C9.08809 12.2198 7.45521 14.5152 6.08484 17.824C5.62963 18.9229 5.69293 19.0664 6.78533 19.4106C7.32563 19.581 7.78366 19.6944 7.803 19.6626C7.82234 19.6308 8.02489 19.13 8.25311 18.5498C10.2682 13.4272 14.4215 9.74453 19.8688 8.2502C21.9568 7.67737 25.7902 7.66489 27.8688 8.22418C31.0462 9.07904 33.2727 10.3077 35.5479 12.4615C37.0222 13.8572 38.8578 16.2667 38.8578 16.8063C38.8578 17.0103 38.3686 17.0553 36.1513 17.0553C33.1711 17.0553 33.2314 17.0317 33.2314 18.1982C33.2314 19.4031 32.9728 19.341 37.9975 19.341H42.5501V14.7696V10.1982H41.4128H40.2754L40.226 12.234L40.1764 14.2699L39.0076 12.7821C35.4693 8.27816 30.3505 5.71904 24.5281 5.54321C23.271 5.50524 22.0446 5.50998 21.8028 5.55394ZM39.5994 29.8465C38.7458 31.9298 37.8496 33.3229 36.3192 34.9456C33.2222 38.2291 29.6347 39.94 24.9647 40.3604C22.7187 40.5626 19.3882 39.9047 16.9462 38.7764C15.2231 37.9803 13.3379 36.653 12.0145 35.3041C10.8905 34.1586 9.14348 31.7574 9.14348 31.3582C9.14348 31.1838 9.77135 31.1189 11.8248 31.0819L14.5061 31.0333L14.5582 29.8465L14.61 28.6597H10.0307H5.45117V33.319V37.9784H6.59403H7.73689V35.8432V33.708L8.3855 34.5684C11.7225 38.9957 16.0238 41.6424 21.0837 42.3822C23.1308 42.6817 26.9388 42.5104 28.7275 42.0387C32.8905 40.9407 36.7384 38.3571 39.3666 34.8957C40.3438 33.6086 41.9382 30.5466 42.1267 29.5954C42.2352 29.0472 42.2197 29.0312 41.3068 28.7603C40.795 28.6082 40.3271 28.4839 40.267 28.4839C40.2069 28.4839 39.9064 29.0971 39.5994 29.8465Z" fill="#333333"/>
</svg>
