<svg width="48" height="48" viewBox="0 0 48 48" fill="none" xmlns="http://www.w3.org/2000/svg">
<path fill-rule="evenodd" clip-rule="evenodd" d="M28.4109 7.88564C27.2145 9.29218 26.9029 10.0414 26.8178 11.7165L26.7439 13.1696L23.5308 16.378L20.3179 19.5863L19.4417 19.3597C17.6777 18.9034 15.6897 19.1697 13.7335 20.1244C12.6856 20.6359 10.9902 22.0045 10.9902 22.3389C10.9902 22.4468 12.4117 23.951 14.1491 25.6817C15.8866 27.4123 17.3081 28.9042 17.3081 28.9969C17.3081 29.0896 15.1394 31.3269 12.4889 33.9687C7.91293 38.5296 7.6529 38.8218 7.33485 39.7609C7.15063 40.3048 7 40.805 7 40.8726C7 40.9401 7.46769 40.8423 8.03912 40.6555C9.04715 40.3259 9.22638 40.1685 14.0235 35.4046L18.9685 30.4936L20.6323 32.1464L22.2958 33.799V32.226V30.6528L18.2225 26.5935C15.9822 24.3608 14.1491 22.4735 14.1491 22.3994C14.1491 22.3253 14.5723 22.0715 15.0895 21.8354C16.4256 21.2254 17.9337 21.1434 19.4374 21.5988C20.0778 21.7928 20.7044 21.9514 20.8298 21.9514C20.9551 21.9514 22.9053 20.1037 25.1635 17.8454L29.2691 13.7393L29.041 12.877C28.8202 12.0423 28.9065 11.0154 29.2488 10.4055C29.3334 10.2547 30.6803 11.4943 33.6061 14.4155C36.9699 17.7739 37.7897 18.6761 37.5917 18.8006C37.127 19.0931 35.9452 19.17 35.0842 18.9639L34.2274 18.759L31.8785 21.1013L29.5296 23.4435H31.1041H32.6787L33.7849 22.349L34.891 21.2544L36.1998 21.2206C37.7975 21.1793 38.944 20.7064 40.1687 19.5835L41 18.8212L35.0822 12.9105L29.1643 7L28.4109 7.88564ZM30.11 26.0018C28.9106 26.3345 27.9488 26.9014 26.9147 27.885C22.5524 32.0341 24.4825 39.235 30.3664 40.7632C34.6514 41.8761 39.0453 38.9463 39.7873 34.4813C40.3943 30.8279 37.8539 26.9637 34.2083 25.9958C33.1622 25.7181 31.1219 25.7211 30.11 26.0018ZM34.2078 28.28C35.428 28.7277 36.4786 29.7174 37.1262 31.0291C37.5983 31.9854 37.6697 32.2974 37.6643 33.3828C37.658 34.7113 37.1616 36.2098 36.7281 36.2085C36.4754 36.2079 29.2787 29.0387 29.2787 28.7875C29.2787 28.6948 29.5966 28.4919 29.9853 28.3367C31.537 27.7172 32.6338 27.7024 34.2078 28.28ZM31.3972 34.0941C33.4325 36.1221 35.0978 37.8364 35.0978 37.9037C35.0978 37.971 34.7799 38.1925 34.3912 38.3958C33.8164 38.6965 33.4054 38.7668 32.1883 38.7723C30.7899 38.7784 30.6223 38.7413 29.6279 38.2038C28.9495 37.8371 28.3319 37.336 27.924 36.8216C27.1007 35.7829 26.5376 34.0143 26.6715 32.8873C26.7654 32.0962 27.3935 30.4066 27.5937 30.4066C27.6502 30.4066 29.3619 32.066 31.3972 34.0941Z" fill="#333333"/>
</svg>
