<svg width="48" height="48" viewBox="0 0 48 48" fill="none" xmlns="http://www.w3.org/2000/svg">
<path fill-rule="evenodd" clip-rule="evenodd" d="M21.0912 5.02678C18.6671 5.63673 15.9722 7.36528 14.5526 9.22104C13.651 10.3997 12.67 12.4005 12.3214 13.7719C11.9639 15.1781 11.9635 18.2175 12.3205 19.6268C13.0117 22.355 15.0297 25.2822 17.1631 26.6512C17.6606 26.9704 18.0625 27.2847 18.0561 27.3495C18.0497 27.4143 17.3105 27.8208 16.4133 28.2528C13.2146 29.7928 10.5259 32.4519 8.88844 35.6944C7.94213 37.5684 7.13234 40.76 7.12084 42.6613L7.11719 43.2545H8.27722H9.43743L9.55935 41.9313C9.90922 38.1329 11.7874 34.4908 14.5871 32.1813C21.4048 26.5578 31.5547 28.0578 36.293 35.3891C37.3112 36.9643 38.1184 39.319 38.3745 41.4615L38.5889 43.2545H39.7353C41.0621 43.2545 41.0034 43.3967 40.6944 40.9322C39.9917 35.3281 36.3747 30.3423 31.3161 28.0051C30.5543 27.6532 29.9309 27.3402 29.9309 27.3097C29.9309 27.2793 30.385 26.9416 30.9402 26.5593C32.9456 25.178 34.6856 22.7862 35.4576 20.3496C36.0397 18.5126 36.0397 14.8861 35.4576 13.0492C34.89 11.2575 33.8727 9.60777 32.4782 8.21705C31.0916 6.83436 29.7697 6.00485 27.8932 5.33979C26.2093 4.74316 22.8358 4.58803 21.0912 5.02678ZM26.2756 7.31454C29.3308 8.01866 32.2759 10.7784 33.2144 13.8166C33.7304 15.4873 33.7205 18.1317 33.1927 19.6951C32.7231 21.0854 31.3024 23.2367 30.3262 24.0359C28.1479 25.8186 25.3179 26.6651 22.7327 26.3068C15.7471 25.3386 12.057 17.4214 15.8568 11.5544C17.1479 9.56105 19.5333 7.81717 21.6482 7.32056C22.627 7.09078 25.2895 7.08732 26.2756 7.31454Z" fill="#333333"/>
</svg>
