<svg width="49" height="48" viewBox="0 0 49 48" fill="none" xmlns="http://www.w3.org/2000/svg">
<path fill-rule="evenodd" clip-rule="evenodd" d="M37.3694 17.1277L32.9972 19.3308V17.1945V15.0581H19.4986H6V24.029V33L19.4562 32.9563L32.9124 32.9125L32.9601 30.8195C32.9862 29.6683 33.0441 28.7266 33.0886 28.7266C33.1333 28.7266 35.0786 29.6876 37.4119 30.8623C39.7452 32.0369 41.7311 32.998 41.8252 32.998C42.0269 32.998 42.0704 15.123 41.869 15.0014C41.7989 14.959 39.7742 15.9159 37.3694 17.1277ZM30.6285 24.028V30.6914H19.4603H8.29222L8.24773 23.9841L8.20342 17.2768L19.4159 17.3207L30.6285 17.3646V24.028ZM39.7865 24.0606C39.788 27.1437 39.724 29.2595 39.6274 29.3194C39.5386 29.3748 38.0104 28.6869 36.2315 27.7909L32.9972 26.162V23.9824V21.8028L36.2658 20.1595C38.4711 19.0506 39.5749 18.5789 39.6591 18.7093C39.7277 18.8154 39.7849 21.2236 39.7865 24.0606Z" fill="#333333"/>
</svg>
