<svg width="49" height="48" viewBox="0 0 49 48" fill="none" xmlns="http://www.w3.org/2000/svg">
<path fill-rule="evenodd" clip-rule="evenodd" d="M18.2132 12.7736L14.4899 16.5472H11.6462H8.80273V24V31.4528H11.6462H14.4899L18.2132 35.2264C21.8888 38.9513 21.9469 39 22.7305 39H23.5241V24V9H22.7305C21.9469 9 21.8888 9.04868 18.2132 12.7736ZM34.9058 12.4755L34.1015 13.3053L35.067 14.5017C36.1789 15.8796 37.5342 18.5757 37.9511 20.2392C39.1221 24.9102 37.9647 30 34.8851 33.7243L34.1256 34.6428L34.9088 35.3592C35.3394 35.7532 35.7803 36.0755 35.8884 36.0755C36.2225 36.0755 37.9927 33.7072 38.7759 32.2125C40.7845 28.3787 41.3337 23.7549 40.2733 19.6023C39.6195 17.0409 37.7003 13.5283 36.1568 12.0681L35.7103 11.6457L34.9058 12.4755ZM21.1016 24C21.1016 29.7594 21.0377 34.4717 20.9594 34.4717C20.8812 34.4717 19.6062 33.2432 18.1259 31.7417L15.4343 29.0117L13.3764 28.9587L11.3184 28.9057V24V19.0943L13.3764 19.0413L15.4343 18.9883L18.1259 16.2583C19.6062 14.7568 20.8812 13.5283 20.9594 13.5283C21.0377 13.5283 21.1016 18.2406 21.1016 24ZM29.6024 17.8681L28.9289 18.6228L29.5916 19.5568C31.4679 22.2011 31.4651 25.634 29.5845 28.4021L28.9608 29.3202L29.7034 30.1185C30.1465 30.5947 30.5535 30.8749 30.7125 30.8132C31.1004 30.6625 32.3918 28.566 32.8586 27.3294C33.4268 25.824 33.5565 23.036 33.1279 21.543C32.5662 19.587 31.1088 17.1132 30.5181 17.1132C30.385 17.1132 29.9728 17.4528 29.6024 17.8681Z" fill="#333333"/>
</svg>
