<svg width="49" height="48" viewBox="0 0 49 48" fill="none" xmlns="http://www.w3.org/2000/svg">
<path fill-rule="evenodd" clip-rule="evenodd" d="M36.2487 7.6995C35.719 8.24198 35.5757 8.50323 35.7076 8.68698C35.8062 8.82439 36.4441 9.6391 37.1255 10.4974C39.1908 13.0993 40.5327 15.9443 41.3075 19.3631C41.8471 21.7437 41.8909 25.7376 41.4024 28.0306C40.5545 32.0124 39.0244 35.1399 36.4258 38.2031L35.459 39.3427L36.282 40.1448L37.1051 40.9466L38.1313 39.85C40.7881 37.0106 42.8162 32.8394 43.789 28.2138C44.2712 25.921 44.2319 21.5731 43.7073 19.188C42.9214 15.6146 41.7732 12.9332 39.8058 10.0764C38.7104 8.48564 37.3974 6.96191 37.1222 6.96191C37.0379 6.96191 36.6447 7.29388 36.2487 7.6995ZM14.6411 12.9971L10.9833 16.6627L8.22893 16.7131L5.47461 16.7634V23.9085V31.0535L8.22215 31.1044L10.9697 31.1554L14.6446 34.8144C18.2457 38.3999 18.3348 38.4734 19.0844 38.4734C19.726 38.4734 19.8654 38.4069 19.949 38.0612C20.004 37.8343 20.0261 31.3008 19.9983 23.5421L19.9479 9.4352L19.1235 9.38335L18.299 9.3315L14.6411 12.9971ZM31.0923 12.8503L30.3337 13.609L31.2867 14.7645C32.7967 16.5953 33.9419 19.1248 34.3226 21.4707C34.9955 25.6183 33.9078 29.7879 31.3144 33.0017L30.3337 34.2173L31.1376 35.0062L31.9415 35.7953L32.4226 35.3481C33.8701 34.0026 35.7141 30.6138 36.3408 28.1475C37.4589 23.7474 36.7156 18.7855 34.379 15.0499C33.4925 13.6326 32.2293 12.0917 31.9538 12.0917C31.8971 12.0917 31.5095 12.433 31.0923 12.8503ZM17.4746 23.9085C17.4746 29.5008 17.4189 34.0764 17.3509 34.0764C17.283 34.0764 16.0253 32.8839 14.5561 31.4265L11.885 28.7768L9.87064 28.7242L7.85629 28.6718V23.9085V19.1451L9.87962 19.0936L11.9028 19.0422L14.549 16.3913C16.0044 14.9334 17.2579 13.7405 17.3348 13.7405C17.4118 13.7405 17.4746 18.3161 17.4746 23.9085ZM25.9528 18.0001L25.1944 18.7787L25.6568 19.3283C25.9111 19.6306 26.3381 20.3314 26.606 20.8856C27.044 21.7921 27.0924 22.0957 27.0874 23.9085C27.0816 26.1222 26.8077 27.0224 25.7233 28.3915L25.1859 29.0699L26.017 29.8784L26.8478 30.6871L27.4859 29.9561C28.2281 29.1057 29.0981 27.3667 29.3685 26.1934C29.8485 24.1098 29.4851 21.1549 28.5337 19.4067C28.026 18.474 27.057 17.2215 26.8429 17.2215C26.7705 17.2215 26.37 17.5717 25.9528 18.0001Z" fill="#333333"/>
</svg>
