<svg width="49" height="48" viewBox="0 0 49 48" fill="none" xmlns="http://www.w3.org/2000/svg">
<path fill-rule="evenodd" clip-rule="evenodd" d="M26.1112 12.6191L22.3971 16.2799H19.6H16.8027V23.4995V30.719H19.6213H22.44L26.1324 34.3805C29.8008 38.0181 29.8298 38.0419 30.5639 37.9903L31.3027 37.9386V23.4995V9.0603L30.5639 9.00931C29.8308 8.95868 29.7964 8.98646 26.1112 12.6191ZM28.9938 23.4995C28.9938 29.0786 28.9305 33.6434 28.8529 33.6434C28.7753 33.6434 27.5089 32.4508 26.0384 30.9932L23.3649 28.343H21.2844H19.204V23.4995V18.6559H21.2844H23.3649L26.0384 16.0057C27.5089 14.5481 28.7753 13.3555 28.8529 13.3555C28.9305 13.3555 28.9938 17.9203 28.9938 23.4995Z" fill="#333333"/>
</svg>
