<svg width="49" height="48" viewBox="0 0 49 48" fill="none" xmlns="http://www.w3.org/2000/svg">
<path fill-rule="evenodd" clip-rule="evenodd" d="M21.7497 12.7775L17.8141 16.555H14.8083H11.8027V24.0155V31.476H14.8083H17.8141L21.7515 35.2597C25.6633 39.0187 25.6942 39.0433 26.477 38.99L27.2649 38.9366L27.3153 23.9683L27.3657 9H26.5256C25.6958 9 25.6365 9.04703 21.7497 12.7775ZM24.8027 24.0155C24.8027 29.7809 24.7352 34.498 24.6524 34.498C24.5697 34.498 23.2193 33.2656 21.6512 31.7593L18.8003 29.0207H16.5818H14.3633V24.0155V19.0103H16.5818H18.8003L21.6512 16.2717C23.2193 14.7654 24.5697 13.533 24.6524 13.533C24.7352 13.533 24.8027 18.2501 24.8027 24.0155ZM33.7741 17.868L33.0142 18.6143L33.508 19.2374C35.7233 22.0316 35.8074 25.5119 33.7302 28.4161L33.0142 29.4167L33.7743 30.1632C34.1923 30.5736 34.6416 30.9094 34.7729 30.9094C35.0544 30.9094 36.2079 29.4352 36.7679 28.3596C37.3328 27.2747 37.8027 25.3021 37.8027 24.0155C37.8027 22.7289 37.3328 20.7563 36.7679 19.6714C36.2079 18.5958 35.0544 17.1216 34.7729 17.1216C34.6416 17.1216 34.1923 17.4574 33.7741 17.868Z" fill="#333333"/>
</svg>
