<svg width="36" height="36" viewBox="0 0 36 36" fill="none" xmlns="http://www.w3.org/2000/svg">
<path fill-rule="evenodd" clip-rule="evenodd" d="M15.9535 6.89418C11.6682 7.70698 8.19438 10.9651 7.04652 15.2477C6.64849 16.7324 6.65163 19.3605 7.05318 20.8388C7.90751 23.9844 10.1571 26.7255 13.0353 28.1284C14.7887 28.983 15.9696 29.25 17.9965 29.25C20.0234 29.25 21.2043 28.983 22.9577 28.1284C25.8661 26.7108 28.0897 23.9805 28.9455 20.776C29.3515 19.2553 29.3515 16.7683 28.9455 15.2477C27.8836 11.2715 24.7473 8.11771 20.8225 7.07963C19.4948 6.72833 17.2733 6.64377 15.9535 6.89418ZM18.8672 8.33294C19.4605 8.63574 20.1029 9.36951 20.6136 10.3282C21.0086 11.0695 21.7645 13.178 21.7645 13.5386C21.7645 13.7188 21.3692 13.7399 17.9965 13.7399C14.6237 13.7399 14.2285 13.7188 14.2285 13.5386C14.2285 13.4278 14.4008 12.8228 14.6113 12.1942C15.7023 8.93679 17.2676 7.5165 18.8672 8.33294ZM14.5843 8.81541C14.5613 8.8712 14.3046 9.39413 14.0137 9.97763C13.7229 10.5611 13.3368 11.5757 13.1559 12.2322C12.9749 12.8887 12.8048 13.4966 12.7779 13.5829C12.7419 13.6991 12.2528 13.7399 10.8962 13.7399H9.06316L9.39387 13.1321C10.2373 11.582 11.7524 10.1271 13.4619 9.22552C14.4273 8.7164 14.6604 8.63122 14.5843 8.81541ZM22.5101 9.22024C24.2263 10.1133 25.7496 11.5707 26.5991 13.1321L26.9298 13.7399H25.0968C23.7402 13.7399 23.2511 13.6991 23.2151 13.5829C23.1882 13.4966 23.0181 12.8887 22.8371 12.2322C22.6561 11.5757 22.27 10.5611 21.9793 9.97763C21.3347 8.68437 21.3471 8.71414 21.4523 8.71414C21.4992 8.71414 21.9753 8.94181 22.5101 9.22024ZM12.4619 16.0644C12.433 16.5481 12.4094 17.4245 12.4094 18.0118C12.4094 18.5992 12.433 19.4756 12.4619 19.9593L12.5145 20.8388L10.5515 20.8734C8.23746 20.9142 8.40439 21.0306 8.17517 19.2155C8.05635 18.2738 8.05635 17.7499 8.17517 16.8082C8.40439 14.9931 8.23746 15.1095 10.5515 15.1503L12.5145 15.1848L12.4619 16.0644ZM22.1864 16.5983C22.2467 17.3865 22.2467 18.6372 22.1864 19.4253L22.0785 20.8388L18.0673 20.872C15.3959 20.8941 14.0123 20.8613 13.9246 20.7736C13.769 20.618 13.7413 15.5221 13.8948 15.2773C13.9723 15.1536 14.8865 15.1259 18.0364 15.1517L22.0785 15.1848L22.1864 16.5983ZM27.5367 15.3633C27.826 15.904 27.9761 17.9613 27.8178 19.2155C27.5903 21.0168 27.7494 20.9017 25.4862 20.9017C24.4295 20.9017 23.5397 20.8765 23.5091 20.8459C23.4784 20.8152 23.5014 20.165 23.5602 19.401C23.619 18.6369 23.619 17.3868 23.5602 16.6227C23.5014 15.8587 23.4784 15.2085 23.5091 15.1778C23.5397 15.1471 24.4295 15.122 25.4862 15.122C27.2525 15.122 27.4182 15.1415 27.5367 15.3633ZM12.7779 22.4408C12.8048 22.5273 12.9741 23.135 13.1541 23.7915C13.3342 24.448 13.7346 25.489 14.044 26.1049C14.3533 26.7208 14.5822 27.2489 14.5527 27.2785C14.523 27.308 14.0515 27.0995 13.5046 26.8149C11.7668 25.9104 10.2473 24.4603 9.39387 22.8916L9.06316 22.2838H10.8962C12.2528 22.2838 12.7419 22.3246 12.7779 22.4408ZM21.7645 22.485C21.7645 22.5959 21.5922 23.2008 21.3817 23.8294C19.8271 28.4711 17.2801 29.2629 15.3794 25.6955C14.9843 24.9542 14.2285 22.8456 14.2285 22.485C14.2285 22.3049 14.6237 22.2838 17.9965 22.2838C21.3692 22.2838 21.7645 22.3049 21.7645 22.485ZM26.5991 22.8916C25.7457 24.4603 24.2261 25.9104 22.4883 26.8149C21.9415 27.0995 21.47 27.308 21.4403 27.2785C21.4108 27.2489 21.6397 26.7208 21.949 26.1049C22.2584 25.489 22.6588 24.448 22.8389 23.7915C23.0189 23.135 23.1882 22.5273 23.2151 22.4408C23.2511 22.3246 23.7402 22.2838 25.0968 22.2838H26.9298L26.5991 22.8916Z" fill="black"/>
</svg>
