<svg width="48" height="48" viewBox="0 0 48 48" fill="none" xmlns="http://www.w3.org/2000/svg">
<path fill-rule="evenodd" clip-rule="evenodd" d="M16.9382 6.99956C15.073 7.43965 14.3326 7.68822 13.2923 8.22326C10.907 9.44989 9.34915 11.0084 8.12917 13.3884C7.14577 15.3069 6.89623 16.393 6.90044 18.7356C6.90368 20.4757 6.96542 20.9552 7.33875 22.1384C7.93959 24.043 8.77489 25.397 10.2946 26.929C11.7123 28.3582 13.0809 29.2209 14.9629 29.8716C16.5799 30.4307 19.4352 30.5665 21.1095 30.164C22.5008 29.8297 24.3397 29.0141 25.3683 28.2754L26.1055 27.746L32.7879 34.4215C38.6831 40.3103 39.529 41.0968 39.9674 41.0968C40.5359 41.0968 41.0008 40.6705 41.0008 40.149C41.0008 39.6595 39.1112 37.6305 32.9151 31.4661C30.0543 28.6201 27.7137 26.2462 27.7137 26.1908C27.7137 26.1355 27.9047 25.8392 28.1382 25.5321C28.8312 24.621 29.7683 22.472 30.0674 21.1085C30.4594 19.3201 30.3346 16.8451 29.7639 15.0898C28.5433 11.336 25.432 8.36083 21.6373 7.31845C20.6882 7.05789 17.5841 6.84724 16.9382 6.99956ZM20.3517 9.1856C21.8035 9.44567 24.072 10.6081 25.1511 11.6448C28.3613 14.7294 29.1276 19.2728 27.0989 23.1916C26.227 24.8755 24.5928 26.4536 22.8526 27.2922C21.1395 28.1176 20.4082 28.2869 18.5351 28.2919C15.4063 28.3002 12.5763 26.8504 10.7641 24.311C9.64082 22.7368 9.06332 21.1086 8.96043 19.2256C8.62031 12.9959 14.1949 8.08262 20.3517 9.1856ZM13.1798 17.6929C13.1798 17.6929 13.1974 18.5943 13.1798 19.045V19.4956V19.6268H18.5586H23.9058V18.6546V17.6824L18.5949 17.6396C13.1798 17.6929 13.1798 17.6929 13.1798 17.6929Z" fill="#333333"/>
<path d="M13.1798 19.045C13.1974 18.5943 13.1798 17.6929 13.1798 17.6929L18.5949 17.6396L23.9058 17.6824V18.6546V19.6268H18.5586H13.1798V19.4956V19.045Z" fill="#333333"/>
<path d="M18.9542 23.9961C18.5035 23.9785 17.6022 23.9961 17.6022 23.9961L17.5488 18.581L17.5916 13.2701H18.5638H19.5361V18.6173V23.9961H19.4049H18.9542Z" fill="#333333"/>
</svg>
