<svg width="48" height="48" viewBox="0 0 48 48" fill="none" xmlns="http://www.w3.org/2000/svg">
<path fill-rule="evenodd" clip-rule="evenodd" d="M17.0082 7.05109C15.1485 7.48927 14.4104 7.73675 13.3731 8.26947C10.9948 9.49076 9.44156 11.0425 8.22517 13.4121C7.24465 15.3223 6.99585 16.4037 7.00005 18.7361C7.00328 20.4686 7.06484 20.946 7.43707 22.1241C8.03614 24.0204 8.86898 25.3685 10.3843 26.8939C11.7978 28.3168 13.1623 29.1758 15.0388 29.8237C16.651 30.3803 19.4979 30.5155 21.1673 30.1147C22.5545 29.7819 24.388 28.9699 25.4136 28.2344L26.1485 27.7073L32.8113 34.3537C38.6892 40.2169 39.5325 41 39.9697 41C40.5365 41 41 40.5755 41 40.0564C41 39.569 39.116 37.5488 32.9381 31.4112C30.0858 28.5775 27.752 26.214 27.752 26.1588C27.752 26.1038 27.9425 25.8088 28.1753 25.503C28.8663 24.5959 29.8006 22.4563 30.0989 21.0986C30.4897 19.318 30.3653 16.8538 29.7963 15.1061C28.5792 11.3687 25.4771 8.40645 21.6935 7.36859C20.7472 7.10917 17.6522 6.89944 17.0082 7.05109ZM20.4117 9.22763C21.8593 9.48657 24.1211 10.644 25.1969 11.6762C28.3978 14.7473 29.1618 19.2709 27.1391 23.1727C26.2697 24.8493 24.6404 26.4205 22.9052 27.2554C21.1972 28.0773 20.4681 28.2458 18.6004 28.2508C15.4809 28.2591 12.6592 26.8156 10.8523 24.2872C9.73237 22.7199 9.15656 21.0988 9.05397 19.224C8.71486 13.0214 14.273 8.12944 20.4117 9.22763ZM13.2609 17.698C13.2609 17.698 13.2785 18.5954 13.2609 19.0441V19.4928V19.6234H18.6239H23.9554V18.6554V17.6874L18.66 17.6448C13.2609 17.698 13.2609 17.698 13.2609 17.698Z" fill="#333333"/>
<path d="M13.2609 19.0441C13.2785 18.5954 13.2609 17.698 13.2609 17.698L18.66 17.6448L23.9554 17.6874V18.6554V19.6234H18.6239H13.2609V19.4928V19.0441Z" fill="#333333"/>
</svg>
