<svg width="36" height="36" viewBox="0 0 36 36" fill="none" xmlns="http://www.w3.org/2000/svg">
<path fill-rule="evenodd" clip-rule="evenodd" d="M32 4H4V32H32V4ZM11.3764 14.998V22H13.6225C14.3419 22 14.9376 21.8145 15.4096 21.4434C15.8816 21.0723 16.1176 20.5872 16.1176 19.9883C16.1176 19.5065 15.9727 19.1159 15.683 18.8164C15.3965 18.5137 15.0124 18.3346 14.5307 18.2793V18.2598C14.9278 18.1361 15.2387 17.9277 15.4633 17.6348C15.6879 17.3418 15.8002 16.9967 15.8002 16.5996C15.8002 16.1243 15.6016 15.7386 15.2045 15.4424C14.8106 15.1462 14.2751 14.998 13.598 14.998H11.3764ZM12.5336 17.9229V15.9307H13.3783C14.1791 15.9307 14.5795 16.2301 14.5795 16.8291C14.5795 17.1774 14.4639 17.4476 14.2328 17.6396C14.0049 17.8285 13.6892 17.9229 13.2855 17.9229H12.5336ZM12.5336 21.0723V18.8555H13.3734C14.3793 18.8555 14.8822 19.2184 14.8822 19.9443C14.8822 20.2959 14.7634 20.5726 14.5258 20.7744C14.2914 20.973 13.9577 21.0723 13.5248 21.0723H12.5336ZM17.3164 22H18.5127V14.998H17.3164V22ZM23.0562 22.1172C23.8408 22.1172 24.4967 21.9805 25.024 21.707V20.6328C24.539 20.9453 23.9661 21.1016 23.3053 21.1016C22.5891 21.1016 22.0113 20.8737 21.5719 20.418C21.1324 19.959 20.9127 19.3438 20.9127 18.5723C20.9127 17.7617 21.1471 17.1139 21.6158 16.6289C22.0878 16.1439 22.7031 15.9014 23.4615 15.9014C24.0312 15.9014 24.552 16.0413 25.024 16.3213V15.1689C24.5781 14.9769 24.0165 14.8809 23.3395 14.8809C22.288 14.8809 21.4173 15.2259 20.7271 15.916C20.0403 16.6061 19.6969 17.5111 19.6969 18.6309C19.6969 19.6725 20.0029 20.514 20.6148 21.1553C21.2268 21.7965 22.0406 22.1172 23.0562 22.1172Z" fill="#5B5A5A"/>
</svg>
