<svg width="48" height="48" viewBox="0 0 48 48" fill="none" xmlns="http://www.w3.org/2000/svg">
<path fill-rule="evenodd" clip-rule="evenodd" d="M22.9414 7.10513C20.0032 7.3209 17.2418 8.23321 14.8389 9.78207C13.8581 10.4142 13.1756 10.9669 12.2076 11.9129C9.42215 14.6349 7.80725 17.8417 7.20678 21.8431C7.08121 22.6796 7.08238 25.2751 7.20874 26.1568C7.66168 29.3182 8.87932 32.1724 10.7888 34.549C11.4487 35.3702 12.82 36.732 13.6081 37.3487C15.9258 39.1625 18.7938 40.3617 21.8434 40.7922C22.7561 40.9211 25.2511 40.9204 26.1571 40.7911C27.5683 40.5897 29.339 40.1139 30.4657 39.6334C32.602 38.7222 34.1527 37.6899 35.793 36.087C38.57 33.3733 40.233 30.0692 40.7914 26.1568C40.9207 25.2508 40.9214 22.7558 40.7925 21.8431C40.2419 17.9431 38.5744 14.6309 35.793 11.9129C33.4925 9.6649 31.0134 8.2987 27.8434 7.53196C26.4752 7.20105 24.2611 7.00827 22.9414 7.10513ZM27.3931 24.96L20.8243 31.5292L17.4322 28.1378L14.0401 24.7464L15.1567 23.6278L16.2733 22.5092L18.5489 24.7839L20.8245 27.0585L26.2745 21.608L31.7246 16.1576L32.8432 17.2742L33.9619 18.3909L27.3931 24.96Z" fill="#333333"/>
</svg>
