<svg width="49" height="48" viewBox="0 0 49 48" fill="none" xmlns="http://www.w3.org/2000/svg">
<path fill-rule="evenodd" clip-rule="evenodd" d="M14.5738 9.04907C13.7168 9.22938 12.8008 9.95287 12.3954 10.7696C12.2893 10.9833 11.2148 14.1481 10.0075 17.8026L7.8125 24.447L7.81762 25.1233C7.82211 25.7239 7.85364 25.8666 8.09873 26.3965C8.26422 26.7542 8.51365 27.1307 8.72138 27.336C9.1337 27.7437 9.85085 28.1156 10.4382 28.2263C10.6847 28.2727 12.4279 28.3063 14.5953 28.3063H18.3279V28.495C18.3279 28.9243 17.9109 30.292 17.4322 31.4332C16.6136 33.3844 16.3362 34.5565 16.3265 36.1045C16.3218 36.857 16.3431 36.9874 16.5406 37.4175C16.9932 38.4034 17.8804 38.993 18.9181 38.9976C19.9432 39.0022 19.6531 39.2527 25.854 33.0094C28.9314 29.911 31.6089 27.2678 31.804 27.1356C32.3865 26.7409 32.9659 26.4748 33.5973 26.3118C34.1463 26.17 34.4943 26.1578 38.003 26.1578H41.8125V18.6381V11.1184L37.6554 11.1169C32.3699 11.115 32.0978 11.0815 29.3148 10.0895C27.8757 9.57648 27.1407 9.37262 25.9722 9.16214C25.3292 9.04628 24.4955 9.024 20.0617 9.00387C17.2226 8.99098 14.7531 9.01135 14.5738 9.04907Z" fill="#333333"/>
</svg>
