<svg width="48" height="48" viewBox="0 0 48 48" fill="none" xmlns="http://www.w3.org/2000/svg">
<path fill-rule="evenodd" clip-rule="evenodd" d="M10 23.5V41H24H38V28.1849V15.3699L33.4002 10.6849L28.8002 6H19.4002H10V23.5ZM27.2179 12.5908L27.2612 16.9424L31.5318 16.9865L35.8023 17.0308V27.8957V38.7607L23.9593 38.8033L12.1163 38.8458V23.4995V8.15308L19.6453 8.19621L27.1744 8.23934L27.2179 12.5908ZM34.093 14.6649C34.093 14.7346 33.0308 14.7915 31.7326 14.7915H29.3721V12.264V9.73654L31.7326 12.1374C33.0308 13.458 34.093 14.5952 34.093 14.6649Z" fill="#333333"/>
<path fill-rule="evenodd" clip-rule="evenodd" d="M11.5 7.5H28V15.5H37V39.5H11.5V7.5ZM16.5117 23.4171V22.3389V21.2607H24.0001H31.4885V22.3389V23.4171H24.0001H16.5117ZM16.5117 27.8958V26.8176V25.7394H24.0001H31.4885V26.8176V27.8958H24.0001H16.5117ZM16.5117 31.1304V32.2086H24.0001H31.4885V31.1304V30.0522H24.0001H16.5117V31.1304Z" fill="#333333"/>
</svg>
