<svg width="48" height="48" viewBox="0 0 48 48" fill="none" xmlns="http://www.w3.org/2000/svg">
<path fill-rule="evenodd" clip-rule="evenodd" d="M35.3276 6.04078C34.9036 6.18649 34.4006 6.40479 34.2098 6.52565C33.5141 6.96607 32.3503 8.04731 32.3503 8.25325C32.3503 8.36938 33.9974 10.1108 36.0105 12.123L39.6707 15.7814L40.1105 15.4113C42.4181 13.4697 42.8895 9.85448 41.1173 7.69172C39.7941 6.07695 37.2945 5.36418 35.3276 6.04078ZM20.6458 19.8849L11.9003 28.7148L11.1882 30.2929C10.7966 31.1608 10.2135 32.4332 9.89259 33.1203C9.57171 33.8074 9.02583 34.991 8.67944 35.7504C8.33305 36.5099 7.53888 38.2492 6.91449 39.6157C6.29009 40.982 5.80825 42.1289 5.84363 42.1643C5.879 42.1998 6.10243 42.1367 6.34007 42.0242C6.5777 41.9118 8.07412 41.2475 9.66535 40.548C13.4625 38.8788 17.6527 37.031 18.4763 36.6625C19.0186 36.4198 20.6993 34.8033 28.0676 27.4379L37.0014 18.5074L33.2631 14.7673C31.2068 12.7102 29.4946 11.0334 29.458 11.0411C29.4214 11.0487 25.4559 15.0285 20.6458 19.8849Z" fill="#333333"/>
</svg>
