<svg width="49" height="48" viewBox="0 0 49 48" fill="none" xmlns="http://www.w3.org/2000/svg">
<path fill-rule="evenodd" clip-rule="evenodd" d="M7.31085 10.7813C7.21198 10.8228 7.02996 10.9656 6.90636 11.0985L6.68164 11.3403V24.0055V36.6707L6.97548 36.9646L7.26933 37.2584H24.794H42.3187L42.6125 36.9646L42.9064 36.6707V26.4269V16.1832L42.6126 15.8893L42.3188 15.5955L34.9722 15.5498C28.0865 15.5069 27.5972 15.4936 27.176 15.3363C26.2129 14.9769 25.623 14.4064 24.5633 12.809C23.8074 11.6696 23.5388 11.3596 22.9962 11.0004L22.605 10.7416L15.0478 10.7238C10.8913 10.714 7.40973 10.7398 7.31085 10.7813Z" fill="#333333"/>
</svg>
