<svg width="48" height="48" viewBox="0 0 48 48" fill="none" xmlns="http://www.w3.org/2000/svg">
<path fill-rule="evenodd" clip-rule="evenodd" d="M14.8116 8.02575C12.5261 8.23612 10.4988 9.20521 8.83991 10.8805C7.01569 12.7228 6.09593 14.9934 6.09375 17.6601C6.09183 20.0785 6.76744 22.0014 8.28349 23.8923C8.55789 24.2345 12.2265 27.9987 16.4359 32.2573L24.0894 40L31.5366 32.4688C35.6324 28.3267 39.2604 24.6208 39.5987 24.2336C40.5936 23.0946 41.2651 21.9248 41.6717 20.6219C42.366 18.3975 42.193 15.6375 41.231 13.5889C40.2892 11.5835 38.6298 9.881 36.7524 8.99391C35.1959 8.25846 34.1685 8.02719 32.4896 8.03421C30.8348 8.04107 29.6852 8.31313 28.2686 9.03284C27.218 9.56663 26.5061 10.1115 25.2317 11.3575L24.088 12.4759L22.9623 11.3694C21.3817 9.81576 20.3283 9.10316 18.7818 8.54135C17.6951 8.14651 15.9549 7.92057 14.8116 8.02575Z" fill="#333333"/>
</svg>
