<svg width="36" height="36" viewBox="0 0 36 36" fill="none" xmlns="http://www.w3.org/2000/svg">
<path fill-rule="evenodd" clip-rule="evenodd" d="M32 4H4V32H32V4ZM7.62969 22H8.82598V14.998H7.62969V22ZM10.2545 14.998V22H12.5006C13.22 22 13.8157 21.8145 14.2877 21.4434C14.7597 21.0723 14.9957 20.5872 14.9957 19.9883C14.9957 19.5065 14.8508 19.1159 14.5611 18.8164C14.2747 18.5137 13.8906 18.3346 13.4088 18.2793V18.2598C13.8059 18.1361 14.1168 17.9277 14.3414 17.6348C14.566 17.3418 14.6783 16.9967 14.6783 16.5996C14.6783 16.1243 14.4798 15.7386 14.0826 15.4424C13.6887 15.1462 13.1533 14.998 12.4762 14.998H10.2545ZM11.4117 17.9229V15.9307H12.2564C13.0572 15.9307 13.4576 16.2301 13.4576 16.8291C13.4576 17.1774 13.3421 17.4476 13.1109 17.6396C12.8831 17.8285 12.5673 17.9229 12.1637 17.9229H11.4117ZM11.4117 21.0723V18.8555H12.2516C13.2574 18.8555 13.7604 19.2184 13.7604 19.9443C13.7604 20.2959 13.6415 20.5726 13.4039 20.7744C13.1695 20.973 12.8359 21.0723 12.4029 21.0723H11.4117ZM20.477 22H21.7514L19.1488 14.998H17.8402L15.2182 22H16.4877L17.0932 20.2178H19.8471L20.477 22ZM18.5678 16.4775L19.5395 19.2705H17.3959L18.3578 16.4775C18.3936 16.3701 18.4262 16.2236 18.4555 16.0381H18.475C18.5076 16.2399 18.5385 16.3864 18.5678 16.4775ZM27.0861 22H28.3557V14.998H27.2375V19.5098C27.2375 19.9525 27.2538 20.2666 27.2863 20.4521H27.2668C27.2277 20.374 27.1398 20.2308 27.0031 20.0225L23.7707 14.998H22.4182V22H23.5412V17.4102C23.5412 16.9186 23.5282 16.598 23.5021 16.4482H23.5314C23.5868 16.5882 23.6568 16.7233 23.7414 16.8535L27.0861 22Z" fill="#5B5A5A"/>
</svg>
