<svg width="49" height="48" viewBox="0 0 49 48" fill="none" xmlns="http://www.w3.org/2000/svg">
<path fill-rule="evenodd" clip-rule="evenodd" d="M21.9656 7.21995C16.8282 8.19514 12.3392 11.4913 9.95426 16.039C6.93692 21.793 7.26175 28.0954 10.8543 33.4984C16.8657 42.5393 29.8055 43.5927 37.3113 35.652C38.7132 34.169 39.4972 33.0023 40.3941 31.0642C41.3748 28.945 41.7472 27.3849 41.8803 24.8353C42.3771 15.3243 35.0983 7.40658 25.4995 7.01724C24.1843 6.96381 22.9383 7.03544 21.9656 7.21995ZM26.8603 15.083C27.9809 15.4191 29.3596 16.5829 30.0089 17.741C30.4649 18.5542 30.6104 19.0879 30.6823 20.2114C30.8158 22.2911 30.4594 23.071 28.3965 25.2157C27.4713 26.1778 26.615 27.1553 26.4937 27.3878C26.3726 27.6205 26.2734 28.2561 26.2734 28.8003V29.7899L24.9674 29.7327L23.6615 29.6754L23.6892 28.4013C23.7263 26.7032 24.1924 25.8345 26.1714 23.7759C27.1515 22.7564 27.8511 21.8458 27.9989 21.3977C28.6352 19.4688 27.0368 17.3987 24.9011 17.3858C23.427 17.3767 22.0457 18.5768 21.7301 20.1404C21.6262 20.6554 21.5817 20.6728 20.3689 20.6728C19.1222 20.6728 19.115 20.6697 19.115 20.1264C19.115 19.1313 19.7192 17.784 20.6103 16.7922C22.3146 14.8952 24.3644 14.3347 26.8603 15.083ZM26.0799 33.0635V34.2252H24.9191H23.7583V33.1927C23.7583 32.6246 23.8163 32.1019 23.8873 32.031C23.9581 31.96 24.4805 31.9019 25.0481 31.9019H26.0799V33.0635Z" fill="#333333"/>
</svg>
