<svg width="48" height="48" viewBox="0 0 48 48" fill="none" xmlns="http://www.w3.org/2000/svg">
<path fill-rule="evenodd" clip-rule="evenodd" d="M22.5748 8.0567C15.7131 8.66452 9.90733 13.7193 8.39125 20.4054C8.09115 21.7291 8 22.568 8 24.0078C8 25.4477 8.09115 26.2865 8.39125 27.6102C9.29105 31.5786 11.7157 35.0341 15.2797 37.4274C16.0833 37.9671 18.0707 38.9195 19.0476 39.233C21.722 40.0914 24.7719 40.2359 27.4892 39.633C29.725 39.1369 32.0868 38.008 33.9096 36.564C37.141 34.0042 39.2414 30.3872 39.864 26.3104C40.0277 25.2386 40.0476 22.9665 39.9022 21.9493C39.1512 16.6932 36.1611 12.3938 31.492 9.85624C28.9422 8.47047 25.575 7.791 22.5748 8.0567ZM25.0716 17.5948V18.6636H24.0016H22.9315V17.5948V16.5259H24.0016H25.0716V17.5948ZM25.0716 26.1455V31.4898H24.0016H22.9315V26.1455V20.8013H24.0016H25.0716V26.1455Z" fill="#333333"/>
</svg>
