<svg width="49" height="48" viewBox="0 0 49 48" fill="none" xmlns="http://www.w3.org/2000/svg">
<path fill-rule="evenodd" clip-rule="evenodd" d="M30.2627 9.05071C30.0987 9.09148 29.8505 9.18272 29.7111 9.25362C29.5716 9.32443 26.9397 11.9122 23.8623 15.0042C20.785 18.0962 18.1076 20.734 17.9125 20.866C17.33 21.2602 16.7506 21.526 16.1193 21.6888C15.5703 21.8305 15.2223 21.8426 11.7137 21.8426H7.9043V29.3532V36.8639L12.0613 36.8653C17.3466 36.8672 17.6187 36.9007 20.4016 37.8915C21.8414 38.4041 22.5768 38.6078 23.7441 38.8175C24.3792 38.9316 25.2574 38.9575 29.5331 38.988C33.217 39.0142 34.7006 38.9986 35.0463 38.93C36.0437 38.7321 36.8631 38.1239 37.2943 37.2613C37.4145 37.0208 38.5009 33.8378 39.7086 30.1878L41.9043 23.5514L41.8989 22.8631C41.8941 22.2445 41.8654 22.1158 41.6153 21.5915C41.4624 21.2706 41.1844 20.8551 40.9978 20.6682C40.5951 20.2648 39.8673 19.8876 39.2777 19.7766C39.0311 19.7302 37.2847 19.6967 35.1106 19.6967H31.3679L31.4209 19.2795C31.5012 18.6456 31.8128 17.6797 32.3311 16.4579C33.1059 14.6311 33.3794 13.4539 33.3885 11.9079C33.3929 11.1569 33.3713 11.0248 33.1728 10.5873C33.0515 10.3198 32.8042 9.95501 32.6233 9.77658C32.0267 9.18805 30.9911 8.86958 30.2627 9.05071Z" fill="#333333"/>
</svg>
