<svg width="48" height="48" viewBox="0 0 48 48" fill="none" xmlns="http://www.w3.org/2000/svg">
<path fill-rule="evenodd" clip-rule="evenodd" d="M21.0569 4.31035C18.3278 5.05223 16.1425 6.8998 14.9533 9.47099C14.5777 10.2831 14.1888 11.3078 14.0892 11.748C13.9857 12.2051 13.8735 14.4871 13.8277 17.07L13.7474 21.5917H11.3737H9V32.7958V44H23.5H38V32.7998V21.5998L35.5705 21.5556L33.141 21.5116L33.0546 16.7098C32.9827 12.7205 32.9218 11.759 32.6942 11.0277C31.9365 8.59307 29.9149 6.11375 27.8191 5.04887C25.725 3.98495 23.249 3.71461 21.0569 4.31035ZM24.8214 6.56047C27.691 7.10756 30.0953 9.68403 30.5851 12.7372C30.6918 13.4027 30.7432 15.3279 30.7165 17.6702L30.6729 21.5116L23.4614 21.5532L16.25 21.5949V17.2084C16.25 12.1584 16.3591 11.5218 17.5214 9.78887C18.641 8.11961 20.2079 6.99375 21.9551 6.60305C23.059 6.35624 23.6999 6.34679 24.8214 6.56047Z" fill="#333333"/>
</svg>
