<svg width="48" height="48" viewBox="0 0 48 48" fill="none" xmlns="http://www.w3.org/2000/svg">
<path fill-rule="evenodd" clip-rule="evenodd" d="M4 12.7999V13.5996L13.6142 18.3332C18.9021 20.9365 23.3506 23.0667 23.5 23.0667C23.6494 23.0667 28.0979 20.9365 33.3858 18.3332L43 13.5996V12.7999V12H23.5H4V12.7999ZM4 26.8667V36H23.5H43V26.8667C43 20.8499 42.9537 17.7333 42.8642 17.7333C42.7896 17.7333 38.4021 19.8635 33.1142 22.4668L23.5 27.2004L13.8858 22.4668C8.59794 19.8635 4.21044 17.7333 4.13582 17.7333C4.04631 17.7333 4 20.8499 4 26.8667Z" fill="#333333"/>
</svg>
