<svg width="48" height="48" viewBox="0 0 48 48" fill="none" xmlns="http://www.w3.org/2000/svg">
<path d="M22.0591 27.8495C20.4603 26.2988 20.8466 21.948 22.0599 20.7679C25.4049 17.5082 32.3477 10.8914 33.0509 10.1456C34.0044 9.13421 36.0439 8.52585 37.1911 9.47036C38.3382 10.4148 38.1471 12.6745 37.3529 14.0236L28.752 27.8495C27.4742 29.3668 23.6578 29.4001 22.0591 27.8495Z" fill="#333333"/>
<path d="M22.4705 28.462C21.2258 27.9507 19.7735 27.3436 19.203 26.5447C18.1138 25.8523 15.5931 25.2665 14.2239 28.462C12.5123 32.4564 9.24478 31.3378 8 30.0597C10.1784 43.0354 20.2922 38.7215 22.4705 36.4508C24.9423 33.8742 24.0265 29.1011 22.4705 28.462Z" fill="#333333"/>
</svg>
