<svg width="49" height="48" viewBox="0 0 49 48" fill="none" xmlns="http://www.w3.org/2000/svg">
<path fill-rule="evenodd" clip-rule="evenodd" d="M30.0773 5.04626C29.0757 6.19597 28.76 6.66959 28.426 7.52369C28.0132 8.57921 27.9012 9.28969 27.9701 10.4154L28.0295 11.3862L24.2823 15.1324L20.535 18.8787L19.6892 18.6809C18.5261 18.4088 17.4998 18.3442 16.3213 18.4684C13.8845 18.7255 12.2557 19.5427 10.1218 21.5788L9.49533 22.1765L13.3361 26.0164L17.1769 29.8563L11.5111 35.5233L5.84533 41.1904L5.41685 42.4691C5.18114 43.1725 5.00009 43.7597 5.01447 43.7741C5.02885 43.7885 5.63781 43.6107 6.36761 43.379L7.69447 42.9577L13.3403 37.3125L18.9862 31.6673L22.8251 35.5054L26.6641 39.3435L27.3729 38.5599C28.9136 36.8561 29.7213 35.4844 30.1419 33.857C30.4512 32.6605 30.4504 30.2465 30.1404 29.0972L29.9353 28.3374L33.7103 24.5616L37.4852 20.7858L38.4976 20.8307C40.6029 20.9243 42.0671 20.3146 43.9679 18.5531L44.6163 17.9523L37.7243 11.066L30.8323 4.17969L30.0773 5.04626Z" fill="#333333"/>
</svg>
