<svg width="48" height="48" viewBox="0 0 48 48" fill="none" xmlns="http://www.w3.org/2000/svg">
<path fill-rule="evenodd" clip-rule="evenodd" d="M22.8426 4.05245C20.4536 4.30745 18.2301 5.40485 16.6645 7.1017C15.1206 8.77509 14.2642 10.8017 14.0472 13.2953L13.9888 13.9673H15.2444H16.5L16.5012 13.5734C16.5029 13.0496 16.8017 11.641 17.0509 10.9819C17.5094 9.76988 18.5711 8.49025 19.8018 7.6662C20.5972 7.13359 21.2518 6.872 22.3796 6.63601C23.8448 6.32938 25.5545 6.46953 26.9911 7.01401C28.1877 7.46756 29.5164 8.57534 30.3052 9.77692C30.8356 10.5848 31.0896 11.2257 31.3233 12.3452C31.4788 13.0894 31.4977 13.627 31.4988 17.3275L31.5 21.4755H20.25H9V32.7377V44H24H39V32.7377V21.4755H36.5089H34.0178L33.973 17.003C33.9255 12.2568 33.9134 12.1152 33.4296 10.6304C32.5151 7.82313 30.1369 5.44248 27.3333 4.52751C25.9688 4.08212 24.259 3.90127 22.8426 4.05245Z" fill="#333333"/>
</svg>
