<svg width="48" height="48" viewBox="0 0 48 48" fill="none" xmlns="http://www.w3.org/2000/svg">
<path fill-rule="evenodd" clip-rule="evenodd" d="M36.4496 37.0003C39.8701 33.7238 42 29.1106 42 24C42 14.0589 33.9411 6 24 6C14.0589 6 6 14.0589 6 24C6 29.0257 8.05967 33.5704 11.381 36.8359C11.5969 35.5176 12.0604 33.9652 12.5784 32.9393C13.8065 30.5074 15.8231 28.513 18.2221 27.358C18.895 27.034 19.4494 26.7292 19.4542 26.6806C19.459 26.632 19.1575 26.3963 18.7844 26.1569C17.1844 25.1301 15.6709 22.9347 15.1525 20.8886C14.8848 19.8316 14.885 17.5521 15.1532 16.4974C15.4146 15.4689 16.1504 13.9682 16.8266 13.0842C17.8912 11.6924 19.9124 10.396 21.7305 9.93854C23.039 9.60948 25.5691 9.72583 26.832 10.1733C28.2394 10.6721 29.2308 11.2942 30.2707 12.3312C31.3166 13.3743 32.0796 14.6116 32.5053 15.9553C32.9418 17.3331 32.9418 20.0529 32.5053 21.4306C31.9263 23.2581 30.6213 25.052 29.1172 26.0879C28.7008 26.3747 28.3603 26.6279 28.3603 26.6508C28.3603 26.6736 28.8279 26.9084 29.3992 27.1723C33.1932 28.9252 35.9059 32.6645 36.4329 36.8676C36.4386 36.913 36.4442 36.9572 36.4496 37.0003ZM34.8265 38.3813L34.693 37.2646C34.5009 35.6577 33.8955 33.8917 33.1318 32.7103C29.5781 27.2118 21.9657 26.0868 16.8524 30.3044C14.7527 32.0365 13.344 34.7681 13.0816 37.6169L13.0218 38.2658C16.0601 40.6073 19.8674 42 24 42C28.0641 42 31.8136 40.6531 34.8265 38.3813ZM30.8229 16.5309C30.1191 14.2522 27.9102 12.1825 25.6188 11.6544C24.8792 11.4839 22.8824 11.4865 22.1483 11.6589C20.5621 12.0313 18.773 13.3392 17.8047 14.8343C14.9549 19.2345 17.7225 25.1724 22.9616 25.8986C24.9006 26.1673 27.0231 25.5324 28.6568 24.1954C29.3889 23.596 30.4544 21.9825 30.8066 20.9398C31.2025 19.7672 31.2099 17.7839 30.8229 16.5309Z" fill="#333333"/>
</svg>
